<svg xmlns="http://www.w3.org/2000/svg" width="72" height="52" viewBox="0 0 72 52">
  <g id="serv-icon4" transform="translate(-1 -3195.802)">
    <rect id="base" width="72" height="52" transform="translate(1 3195.802)" fill="none"/>
    <g id="_38.-Certificate" data-name="38.-Certificate" transform="translate(10 3199.802)">
      <path id="Layer-1" d="M28.94,37.84c.239-.571,1.234-1.047,1.234-1.687,0-.661-1.061-1.146-1.255-1.743-.2-.618.366-1.633-.009-2.148s-1.521-.293-2.04-.671-.649-1.533-1.267-1.734c-.6-.194-1.385.658-2.045.658-.492,0-1.055-.473-1.557-.634V2H43.737l7.357,7.241v28.6Z" transform="translate(-6.94)" fill="none" stroke="#756b65" stroke-linecap="round" stroke-linejoin="round" stroke-width="2.5" fill-rule="evenodd"/>
      <path id="Layer-2" d="M78.746,10.746H72V4" transform="translate(-35.858 -1.157)" fill="none" stroke="#756b65" stroke-linecap="round" stroke-linejoin="round" stroke-width="2.5" fill-rule="evenodd"/>
      <path id="Layer-3" d="M23.233,74.325c0,.661-1.061,1.146-1.255,1.743-.2.618.366,1.633-.009,2.148a1.363,1.363,0,0,1-.942.385,2.6,2.6,0,0,0-1.1.286c-.5.367-.644,1.486-1.23,1.72l-.038.014c-.6.194-1.385-.658-2.045-.658s-1.449.852-2.045.658l-.038-.014c-.586-.234-.726-1.354-1.23-1.72a2.6,2.6,0,0,0-1.1-.286,1.363,1.363,0,0,1-.942-.385c-.374-.515.192-1.53-.009-2.148-.194-.6-1.255-1.082-1.255-1.743s1.061-1.146,1.255-1.743c.2-.618-.366-1.633.009-2.148s1.521-.293,2.04-.671.649-1.533,1.267-1.734c.6-.194,1.385.658,2.045.658s1.449-.852,2.045-.658c.618.2.753,1.36,1.267,1.734s1.662.152,2.04.671-.192,1.53.009,2.148c.194.6,1.255,1.082,1.255,1.743Z" transform="translate(0 -38.171)" fill="none" stroke="#756b65" stroke-linecap="round" stroke-linejoin="round" stroke-width="2.5" fill-rule="evenodd"/>
      <path id="Layer-4" d="M34,47H53.4" transform="translate(-13.88 -26.026)" fill="none" stroke="#756b65" stroke-linecap="round" stroke-linejoin="round" stroke-width="2.5" fill-rule="evenodd"/>
      <path id="Layer-5" d="M34,59H53.4" transform="translate(-13.88 -32.966)" fill="none" stroke="#756b65" stroke-linecap="round" stroke-linejoin="round" stroke-width="2.5" fill-rule="evenodd"/>
      <path id="Layer-6" d="M34,35H53.4" transform="translate(-13.88 -19.086)" fill="none" stroke="#756b65" stroke-linecap="round" stroke-linejoin="round" stroke-width="2.5" fill-rule="evenodd"/>
    </g>
  </g>
</svg>
