<svg xmlns="http://www.w3.org/2000/svg" xmlns:xlink="http://www.w3.org/1999/xlink" width="72" height="52" viewBox="0 0 72 52">
  <defs>
    <clipPath id="clip-path">
      <path id="Path_122827" data-name="Path 122827" d="M3582.266,6894.48l.713,6.494,1.346,6.732,3.564,6.335,7.128,5.268V6932.1h-43.795v-27.956l18.215-14.018,3.96-.872,4.277,1.268Z" transform="translate(-3551.221 -6889.253)" fill="#fff"/>
    </clipPath>
  </defs>
  <g id="serv-icon5" transform="translate(-1 -3195.802)">
    <rect id="base" width="72" height="52" transform="translate(1 3195.802)" fill="none"/>
    <g id="Group_55850" data-name="Group 55850" transform="translate(-1421.221 1823.855)">
      <g id="house-2" transform="translate(1430 1376.535)">
        <g id="Mask_Group_1" data-name="Mask Group 1" transform="translate(0.221 -0.01)" clip-path="url(#clip-path)">
          <g id="Group_55850-2" data-name="Group 55850" transform="translate(1.767 2.524)">
            <path id="Path_122822" data-name="Path 122822" d="M2,22H41.832" transform="translate(-2 16.776)" fill="none" stroke="#756b65" stroke-linecap="round" stroke-linejoin="round" stroke-width="2.5"/>
            <path id="Path_122823" data-name="Path 122823" d="M2.95,41.306l.1-23.959a4.013,4.013,0,0,1,1.534-3.127L18.524,3.366a4.005,4.005,0,0,1,4.9,0L32,10.029,37.365,14.2A3.962,3.962,0,0,1,38.9,17.347V41.306" transform="translate(-1.058 -2.53)" fill="none" stroke="#756b65" stroke-linecap="round" stroke-linejoin="round" stroke-width="2.5"/>
            <path id="Path_122824" data-name="Path 122824" d="M21.887,11H9.627A2.821,2.821,0,0,0,7,13.987v18.92H24.514V13.987A2.821,2.821,0,0,0,21.887,11Z" transform="translate(2.958 5.868)" fill="none" stroke="#756b65" stroke-linecap="round" stroke-linejoin="round" stroke-width="2.5"/>
            <path id="Path_122825" data-name="Path 122825" d="M10,16.25v2.987" transform="translate(5.933 11.075)" fill="none" stroke="#756b65" stroke-linecap="round" stroke-linejoin="round" stroke-width="2.5"/>
            <path id="Path_122826" data-name="Path 122826" d="M10.5,7.5h5.975" transform="translate(6.428 2.398)" fill="none" stroke="#756b65" stroke-linecap="round" stroke-linejoin="round" stroke-width="2.5"/>
          </g>
        </g>
      </g>
      <g id="clock-1" transform="translate(1468.722 1382.343)">
        <path id="Path_122819" data-name="Path 122819" d="M2,9.179A7.179,7.179,0,1,0,9.179,2,7.182,7.182,0,0,0,2,9.179Z" transform="translate(-2.127 -2.127)" fill="none" stroke="#756b65" stroke-linecap="round" stroke-linejoin="round" stroke-miterlimit="10" stroke-width="2.2"/>
        <path id="Path_122821" data-name="Path 122821" d="M2,12.965A10.965,10.965,0,1,0,12.965,2,10.969,10.969,0,0,0,2,12.965Z" transform="translate(-5.913 -5.913)" fill="none" stroke="#756b65" stroke-linecap="round" stroke-linejoin="round" stroke-miterlimit="10" stroke-width="2.2"/>
        <path id="Path_122820" data-name="Path 122820" d="M11.421,11.909l2.488-1.1c.343-.2.336-.3.336-.7V7.51" transform="translate(-7.219 -3.414)" fill="none" stroke="#756b65" stroke-linecap="round" stroke-linejoin="round" stroke-miterlimit="10" stroke-width="2.2"/>
      </g>
    </g>
  </g>
</svg>
