<svg xmlns="http://www.w3.org/2000/svg" width="48" height="48" viewBox="0 0 48 48">
  <g id="eserv2" transform="translate(8 10)">
    <rect id="eserv1" width="48" height="48" transform="translate(-8 -10)" fill="none"/>
    <g id="Group_55849" data-name="Group 55849" transform="translate(-4.593 -6.593)">
      <path id="Path_122801" data-name="Path 122801" d="M38.528,7.971V7.179L36.07,1.036a1.645,1.645,0,0,0-3.056,0L30.557,7.179v.792H11.918A5.977,5.977,0,0,0,0,8.636V35.207a5.985,5.985,0,0,0,5.978,5.978H41.185V7.971ZM34.249,1.528h0a.329.329,0,0,1,.588,0l2.047,5.115H32.2ZM37.2,7.971v13.95H35.207V7.971Zm-5.314,0h1.993v13.95H31.885Zm0,15.278H37.2v2.657a.665.665,0,0,1-.664.664H32.549a.665.665,0,0,1-.664-.664ZM11.957,29.177a4.645,4.645,0,0,0,1.661-.571l-.666-1.15a3.3,3.3,0,0,1-1,.37v-6.5a3.321,3.321,0,0,1,1.875,5.395l1.016.856a4.645,4.645,0,0,0-2.891-7.593V18.639a5.976,5.976,0,0,1,0,11.879Zm0,6.03V31.851a7.3,7.3,0,0,0,0-14.546V11.957h1.329v2.856l.5.129A9.92,9.92,0,0,1,16.345,16l.444.262,2.019-2.019,2.819,2.819-2.019,2.019.262.443a9.914,9.914,0,0,1,1.06,2.562l.129.5h2.856v3.986H21.058l-.129.5a9.914,9.914,0,0,1-1.06,2.562l-.262.443,2.019,2.019-2.819,2.819-2.019-2.019-.444.262a9.9,9.9,0,0,1-2.561,1.06l-.5.129V37.2H11.608A5.936,5.936,0,0,0,11.957,35.207ZM1.329,8.636a4.65,4.65,0,0,1,9.3,0V31.457a5.964,5.964,0,0,0-9.3,0Zm4.65,31.221a4.65,4.65,0,1,1,4.65-4.65A4.655,4.655,0,0,1,5.978,39.857Zm33.878,0H9.728a6.019,6.019,0,0,0,1.218-1.329h3.668V35.361a11.18,11.18,0,0,0,1.955-.809l2.239,2.239,4.7-4.7-2.239-2.239a11.229,11.229,0,0,0,.808-1.955h3.168V21.257H22.075a11.177,11.177,0,0,0-.808-1.955L23.5,17.063l-4.7-4.7L16.569,14.6a11.2,11.2,0,0,0-1.955-.809V10.628H11.957V9.3h18.6V25.907A2,2,0,0,0,32.549,27.9h3.986a2,2,0,0,0,1.993-1.993V9.3h1.329Z" fill="#887852"/>
      <path id="Path_122802" data-name="Path 122802" d="M304,361.3h13.285V352H304Zm1.329-7.971h10.628v6.643H305.329Z" transform="translate(-278.758 -322.772)" fill="#887852"/>
      <path id="Path_122803" data-name="Path 122803" d="M59.9,384h5.314v1.329H59.9Zm-2.657,0h1.329v1.329H57.242Zm0,2.657h5.314v1.329H57.242Zm6.643,0h1.329v1.329H63.885ZM35.321,384a3.321,3.321,0,0,0,0,6.643v-1.329a1.993,1.993,0,1,1,1.993-1.993h1.329A3.325,3.325,0,0,0,35.321,384Z" transform="translate(-29.343 -352.115)" fill="#887852"/>
    </g>
  </g>
</svg>
