<svg xmlns="http://www.w3.org/2000/svg" width="48" height="48" viewBox="0 0 48 48">
  <g id="eserv4" transform="translate(8 10)">
    <rect id="eserv1" width="48" height="48" transform="translate(-8 -10)" fill="none"/>
    <g id="Group_55851" data-name="Group 55851" transform="translate(-6.137 -7.643)">
      <path id="Path_122807" data-name="Path 122807" d="M10.716,27.1a.651.651,0,0,1-.646-.646V3.4A2.412,2.412,0,0,1,12.482,1h23.95a.646.646,0,1,1,0,1.292H12.482A1.116,1.116,0,0,0,11.362,3.4V26.449a.653.653,0,0,1-.646.655ZM40.637,42.353H12.482a2.412,2.412,0,0,1-2.412-2.4V32.092a.646.646,0,0,1,1.292,0v7.857a1.116,1.116,0,0,0,1.12,1.111H40.637a1.116,1.116,0,0,0,1.12-1.111V7.573a.646.646,0,1,1,1.292,0V39.949A2.417,2.417,0,0,1,40.637,42.353Z" transform="translate(-1.166)" fill="#887852"/>
      <path id="Path_122808" data-name="Path 122808" d="M42.884,8.048H37.069a.651.651,0,0,1-.646-.646V1.647a.638.638,0,0,1,.4-.594.668.668,0,0,1,.706.138l5.815,5.755a.642.642,0,0,1-.457,1.1ZM37.715,6.756h3.6L37.715,3.2ZM22.82,18.335H16.255A2.6,2.6,0,0,1,13.679,16.1a7.348,7.348,0,0,1-.069-.956c0-3.92,3.86-3.92,5.936-3.92s5.936,0,5.936,3.92a7.569,7.569,0,0,1-.069.956A2.63,2.63,0,0,1,22.82,18.335Zm-3.282-5.815c-3.515,0-4.644.638-4.644,2.628a4.928,4.928,0,0,0,.06.775,1.31,1.31,0,0,0,1.3,1.12H22.82a1.317,1.317,0,0,0,1.3-1.111,6.361,6.361,0,0,0,.06-.775c0-1.99-1.129-2.636-4.644-2.636Z" transform="translate(-1.656 -0.001)" fill="#887852"/>
      <path id="Path_122809" data-name="Path 122809" d="M17.881,13.052a4.1,4.1,0,1,1,4.1-4.1A4.105,4.105,0,0,1,17.881,13.052Zm0-6.909A2.809,2.809,0,1,0,20.69,8.951a2.809,2.809,0,0,0-2.809-2.809ZM33.242,8.58H25.385a.646.646,0,1,1,0-1.292h7.857a.646.646,0,1,1,0,1.292Zm0,2.877H25.385a.646.646,0,1,1,0-1.292h7.857a.646.646,0,1,1,0,1.292Zm0,2.877H25.385a.646.646,0,1,1,0-1.292h7.857a.646.646,0,1,1,0,1.292Zm4.48,11.484H13.065a.651.651,0,0,1-.646-.646V20.78a.651.651,0,0,1,.646-.646H37.722a.651.651,0,0,1,.646.646v4.394A.651.651,0,0,1,37.722,25.819ZM13.711,24.527H37.076v-3.1H13.711Zm24.011,4.988H26.16a.646.646,0,0,1,0-1.292H37.722a.646.646,0,1,1,0,1.292Zm0,3.687H26.16a.646.646,0,0,1,0-1.292H37.722a.646.646,0,1,1,0,1.292Zm-21.245,7.78A.644.644,0,0,1,16.4,39.7a3.585,3.585,0,0,0,2.972-2.964,1.774,1.774,0,0,1,.327-.956,1.37,1.37,0,0,1,1.671-.284,1.494,1.494,0,0,1,.663-.818,1.659,1.659,0,0,1,1.611.069,3.5,3.5,0,0,1,.922.836l1.318,1.534a.648.648,0,1,1-.982.844l-1.318-1.534a2.46,2.46,0,0,0-.577-.551.423.423,0,0,0-.345-.06c-.086.043-.129.267-.069.448a2.66,2.66,0,0,0,.638.862.645.645,0,0,1,.121.732.638.638,0,0,1-.655.362,1.917,1.917,0,0,1-1.31-.862l-.138-.2a1.936,1.936,0,0,0-.414-.474.272.272,0,0,0-.181-.043c.026,0,.017.129,0,.207a4.889,4.889,0,0,1-4.1,4.144.239.239,0,0,0-.078-.009Zm-3.5-4.273a.646.646,0,0,1-.457-.19L2.425,26.414a2.622,2.622,0,0,1,0-3.722,2.69,2.69,0,0,1,3.739-.009l10.1,10.1a.65.65,0,0,1,0,.913l-2.826,2.826a.646.646,0,0,1-.457.19ZM4.3,23.2a1.3,1.3,0,0,0-.948.4,1.343,1.343,0,0,0-.4.965,1.3,1.3,0,0,0,.4.948l9.632,9.64,1.913-1.913L5.251,23.6a1.33,1.33,0,0,0-.948-.4Z" transform="translate(0 -0.533)" fill="#887852"/>
      <path id="Path_122810" data-name="Path 122810" d="M17.788,41.425a.519.519,0,0,1-.224-.043l-4.445-1.62a.646.646,0,1,1,.439-1.215L16.7,39.693l-1.146-3.145a.646.646,0,1,1,1.215-.439l1.62,4.445a.662.662,0,0,1-.146.681.677.677,0,0,1-.457.19ZM4.865,31.328a.655.655,0,0,1-.612-.879,5.311,5.311,0,0,1,3.2-3.2.649.649,0,0,1,.457,1.215A4.005,4.005,0,0,0,5.46,30.915a.613.613,0,0,1-.594.414Z" transform="translate(-0.355 -3.63)" fill="#887852"/>
    </g>
  </g>
</svg>
