<svg xmlns="http://www.w3.org/2000/svg" width="48" height="48" viewBox="0 0 48 48">
  <g id="eserv3" transform="translate(8 10)">
    <rect id="eserv1" width="48" height="48" transform="translate(-8 -10)" fill="none"/>
    <g id="Group_55850" data-name="Group 55850" transform="translate(-5 -6.633)">
      <path id="Path_122804" data-name="Path 122804" d="M102.71,97.548a2.064,2.064,0,0,0-3.781-.495l-.344.6a.688.688,0,0,0-.935.248L95.9,100.876l-.6-.344a.687.687,0,1,0-.688,1.189l.6.344-5.844,10.127-1.444,3.857-.688,1.285a2.063,2.063,0,0,0,.11,2.228l-1.547,1.9-.433-1.086a1.375,1.375,0,0,0-2.455-.193l-.247.419-.234-2.75a1.375,1.375,0,0,0-2.675-.323L78.069,122.6a.688.688,0,0,0,.433.866.6.6,0,0,0,.213.055.688.688,0,0,0,.653-.467l1.684-5.074.241,2.791a1.375,1.375,0,0,0,2.551.592l.254-.42.426,1.08a1.375,1.375,0,0,0,2.351.35l1.6-2.028a2.118,2.118,0,0,0,.543.069,2.063,2.063,0,0,0,1.794-1.018l.688-1.148,2.619-3.183,5.906-10.251.6.344a.689.689,0,0,1,.255.942l-2.75,4.765a.683.683,0,1,0,1.162.715l2.75-4.765a2.062,2.062,0,0,0-.756-2.819l-.6-.344,1.719-2.977a.688.688,0,0,0-.248-.935l.344-.6A2.062,2.062,0,0,0,102.71,97.548Zm-2.592.193a.687.687,0,0,1,.42-.323.722.722,0,0,1,.522.069.688.688,0,0,1,.323.419.722.722,0,0,1-.069.522l-.344.6-1.2-.688Zm-9.371,19.2-.344-.2-1.018-.592.976-2.612,2.166,1.251Zm-2.063,1.987a.687.687,0,0,1-.206-.9l.344-.6,1.2.688-.344.591a.687.687,0,0,1-.99.22Zm4.627-5.266-2.379-1.375,5.5-9.529,2.379,1.375ZM99.5,102.938l-2.379-1.375L98.5,99.184l2.379,1.375ZM72.376,118.58l-2.434,2.427-1.458-1.458a.688.688,0,1,0-.969.976l1.458,1.458a1.386,1.386,0,0,0,1.946,0l2.427-2.434a.688.688,0,0,0-.969-.969Zm0,0" transform="translate(-61.527 -87.732)" fill="#887852"/>
      <path id="Path_122805" data-name="Path 122805" d="M32,76.572a5.844,5.844,0,1,0,11.688,0,.688.688,0,0,0-1.375,0A4.469,4.469,0,1,1,40.525,73a.688.688,0,0,0,.825-1.1A5.844,5.844,0,0,0,32,76.572ZM54,49.415a.688.688,0,0,0,0-1.375H36.125a.688.688,0,0,0-.688.688v2.75a.687.687,0,0,0,.688.688H54a.688.688,0,1,0,0-1.375H36.813V49.415ZM38.188,53.54a.688.688,0,0,0,0,1.375H51.938a.688.688,0,0,0,0-1.375Zm17.876,4.813H40.938a.688.688,0,0,0,0,1.375H56.063a.688.688,0,0,0,0-1.375Zm-6.875,4.813a.688.688,0,0,0-.688-.688H34.75a.688.688,0,1,0,0,1.375H48.5A.687.687,0,0,0,49.188,63.166Zm6.875-.688H51.251a.688.688,0,1,0,0,1.375h4.813a.688.688,0,0,0,0-1.375ZM41.625,67.291a.688.688,0,1,0,0-1.375H34.75a.688.688,0,1,0,0,1.375Zm2.75,0h4.813a.688.688,0,0,0,0-1.375H44.375a.688.688,0,0,0,0,1.375Zm0,0" transform="translate(-29.25 -43.875)" fill="#887852"/>
      <path id="Path_122806" data-name="Path 122806" d="M30.939,31.666a.688.688,0,0,0-.688.688v6.875a.687.687,0,0,1-.688.688H2.063a.687.687,0,0,1-.688-.688V2.1a.688.688,0,0,1,.688-.688h27.5a.688.688,0,0,1,.688.688V15.014a.688.688,0,1,0,1.375,0V2.1A2.063,2.063,0,0,0,29.564.04H2.063A2.063,2.063,0,0,0,0,2.1V39.229a2.062,2.062,0,0,0,2.063,2.063h27.5a2.062,2.062,0,0,0,2.063-2.063V32.354A.688.688,0,0,0,30.939,31.666Zm0,0" fill="#887852"/>
    </g>
  </g>
</svg>
