<svg xmlns="http://www.w3.org/2000/svg" width="48" height="48" viewBox="0 0 48 48">
  <g id="eserv1" transform="translate(8 10)">
    <rect id="eserv1-2" data-name="eserv1" width="48" height="48" transform="translate(-8 -10)" fill="none"/>
    <g id="Group_55847" data-name="Group 55847" transform="translate(-11.652 -25.576)">
      <path id="Path_122795" data-name="Path 122795" d="M220.605,227.9l-.283,2.827,2.893,1.989,2.893-1.989-.283-2.827" transform="translate(-195.564 -190.544)" fill="none" stroke="#887852" stroke-linecap="round" stroke-linejoin="round" stroke-width="1.5" fill-rule="evenodd"/>
      <path id="Path_122796" data-name="Path 122796" d="M182.29,30.578v1.9a5.544,5.544,0,1,1-11.089,0v-1.9m.11,10.919,2.541,2.776,2.893-2.1m-6.994-14.157H183.74v2.433H169.751Zm1.216,0v-.608a5.749,5.749,0,0,1,.915-3.121m.789-.976a5.767,5.767,0,0,1,2.858-1.553m2.433,0a5.78,5.78,0,0,1,4.562,5.649v.608m-6.994,0V21.761a1.216,1.216,0,1,1,2.433,0v6.257" transform="translate(-149.094)" fill="none" stroke="#887852" stroke-linecap="round" stroke-linejoin="round" stroke-width="1.5" fill-rule="evenodd"/>
      <path id="Path_122797" data-name="Path 122797" d="M130.856,250.741l-4.571,2.355c-1.625.837-3.324,1.5-3.324,3.324v5.442l10.789,7.3,4.891-3.308m1.008-.682,4.891-3.308V256.42c0-1.828-1.7-2.487-3.324-3.324l-4.571-2.355m8.954-1.061-.2,1.956m4,0-.2-1.956" transform="translate(-106.098 -210.554)" fill="none" stroke="#887852" stroke-linecap="round" stroke-linejoin="round" stroke-width="1.5" fill-rule="evenodd"/>
      <path id="Path_122798" data-name="Path 122798" d="M361.251,273.8l-1.579.85a18.335,18.335,0,0,0-1.813,1.012m2.529,8.363h9.363v-6.458c0-1.6-1.5-2.157-2.917-2.917l-1.579-.85" transform="translate(-321.948 -232.721)" fill="none" stroke="#887852" stroke-linecap="round" stroke-linejoin="round" stroke-width="1.5" fill-rule="evenodd"/>
      <path id="Path_122799" data-name="Path 122799" d="M43.308,124.914a2.053,2.053,0,0,1-4,0m-3.4-7.128H46.71m-1.567-.67a3.837,3.837,0,1,0-7.673,0v2.46a3.837,3.837,0,1,0,7.673,0Zm-3.837-1.692v-3.649M15.8,122.957l.2,1.956m-4,0,.2-1.956M16,124.914l1.579.85a18.329,18.329,0,0,1,1.813,1.012m-2.528,8.364H7.5v-6.458c0-1.6,1.5-2.157,2.917-2.917l1.579-.85m0,0,2,2.206,2-2.206m3.4-7.128H8.594m1.567-.67a3.837,3.837,0,1,1,7.673,0v2.46a3.837,3.837,0,1,1-7.673,0ZM14,115.423v-3.649m0,15.346v7.411m2.865-2.4H7.5m0-2.433h9.363m10.789-3.69v16.43m8.356-11.524V129.7m0,3.649V132.13m-2.922-6.8L30.545,128.1l-2.893-2.1" transform="translate(0 -83.831)" fill="none" stroke="#887852" stroke-linecap="round" stroke-linejoin="round" stroke-width="1.5" fill-rule="evenodd"/>
    </g>
  </g>
</svg>
