<svg id="Brandmark" xmlns="http://www.w3.org/2000/svg" width="247.968" height="57.55" viewBox="0 0 247.968 57.55">
  <g id="Group_126014" data-name="Group 126014">
    <g id="Group_126009" data-name="Group 126009">
      <g id="Group_126006" data-name="Group 126006" transform="translate(28.963 37.807)">
        <path id="Path_130008" data-name="Path 130008" d="M90.1,68.013a.139.139,0,0,1-.131-.1l-1.548-3.2h-2c-.044,0-.061.017-.061.061v3.132c0,.07-.035.1-.114.1h-.411c-.07,0-.114-.035-.114-.1V60.735a.093.093,0,0,1,.1-.1h2.484a2.382,2.382,0,0,1,1.653.542,1.907,1.907,0,0,1,.595,1.5,2.021,2.021,0,0,1-.394,1.277,1.966,1.966,0,0,1-1.111.682l1.61,3.272a.114.114,0,0,1,.017.087.078.078,0,0,1-.07.035H90.1ZM88.309,64.12a1.776,1.776,0,0,0,1.216-.376,1.6,1.6,0,0,0,0-2.161,1.746,1.746,0,0,0-1.216-.376H86.429c-.044,0-.061.018-.061.061V64.05c0,.044.017.061.061.061h1.881Z" transform="translate(-54.815 -60.508)" fill="#fff"/>
        <path id="Path_130009" data-name="Path 130009" d="M95.657,68.1a2.575,2.575,0,0,1-1.513-.42,2.355,2.355,0,0,1-.875-1.242,2.392,2.392,0,0,1-.1-.324c-.026-.122-.044-.262-.061-.42s-.035-.359-.044-.577-.017-.5-.017-.814.009-.586.017-.814.026-.42.044-.577.044-.306.061-.42a1.75,1.75,0,0,1,.1-.324,2.426,2.426,0,0,1,.875-1.242,2.594,2.594,0,0,1,1.513-.42,2.566,2.566,0,0,1,1.5.42,2.355,2.355,0,0,1,.875,1.242c.026.1.061.21.087.324a3.477,3.477,0,0,1,.07.42c.017.166.035.359.044.577s.017.49.017.8-.009.595-.017.814-.026.42-.044.577a3.475,3.475,0,0,1-.07.42c-.026.122-.061.227-.087.324a2.426,2.426,0,0,1-.875,1.242A2.507,2.507,0,0,1,95.657,68.1ZM97.625,64.3c0-.3-.009-.551-.017-.77s-.026-.4-.035-.551a2.812,2.812,0,0,0-.061-.376c-.026-.1-.052-.192-.07-.262a1.9,1.9,0,0,0-3.578,0c-.017.07-.044.157-.07.262a3.073,3.073,0,0,0-.061.376c-.017.149-.026.332-.035.551s-.017.472-.017.77.009.551.017.77.026.4.035.551a2.812,2.812,0,0,0,.061.376c.026.1.052.192.07.262a1.9,1.9,0,0,0,3.578,0c.017-.07.044-.157.07-.262a3.073,3.073,0,0,0,.061-.376c.017-.149.026-.332.035-.551S97.625,64.6,97.625,64.3Z" transform="translate(-55.733 -60.493)" fill="#fff"/>
        <path id="Path_130010" data-name="Path 130010" d="M102.365,68.013c-.07,0-.114-.035-.114-.1v-2.93l-2.213-4.234a.067.067,0,0,1,.009-.079.085.085,0,0,1,.079-.035h.42a.189.189,0,0,1,.166.1l1.863,3.534h.035l1.828-3.534a.172.172,0,0,1,.166-.1h.411a.092.092,0,0,1,.087.035.066.066,0,0,1,0,.079l-2.213,4.234V67.9c0,.07-.035.1-.114.1h-.411Z" transform="translate(-56.607 -60.508)" fill="#fff"/>
        <path id="Path_130011" data-name="Path 130011" d="M108.409,60.725a.124.124,0,0,1,.131-.1h.394a.137.137,0,0,1,.131.1l2.563,7.173c.017.07,0,.1-.079.1h-.42c-.079,0-.131-.035-.14-.1l-.656-1.811h-3.219l-.656,1.811a.147.147,0,0,1-.14.1h-.42q-.1,0-.079-.1Zm1.715,4.75-1.382-3.858h-.035l-1.391,3.858Z" transform="translate(-57.331 -60.506)" fill="#fff"/>
        <path id="Path_130012" data-name="Path 130012" d="M114.18,60.725c0-.07.035-.1.114-.1h.411c.07,0,.114.035.114.1v6.631c0,.044.017.061.061.061h3.648a.093.093,0,0,1,.1.1v.367a.093.093,0,0,1-.1.1h-4.234c-.07,0-.114-.035-.114-.1Z" transform="translate(-58.379 -60.506)" fill="#fff"/>
        <path id="Path_130013" data-name="Path 130013" d="M124.072,66.447c-.026-.1-.052-.2-.079-.306a3.673,3.673,0,0,1-.061-.42c-.017-.166-.026-.367-.035-.595s-.017-.507-.017-.831.009-.6.017-.831.026-.429.035-.595a3.672,3.672,0,0,1,.061-.42c.026-.114.052-.219.079-.306a2.418,2.418,0,0,1,.866-1.242,2.532,2.532,0,0,1,1.47-.411,2.581,2.581,0,0,1,1.338.341,2.235,2.235,0,0,1,.892,1.023c.026.061.018.114-.035.14l-.359.175c-.061.035-.1.017-.14-.044a2.169,2.169,0,0,0-.656-.77,1.763,1.763,0,0,0-1.041-.289,1.848,1.848,0,0,0-1.1.306,1.952,1.952,0,0,0-.639.918c-.018.07-.044.157-.061.262a3.247,3.247,0,0,0-.052.376c-.009.149-.026.332-.035.551s-.009.481-.009.8,0,.577.009.8.017.4.035.551.035.28.052.376.044.192.061.262a1.952,1.952,0,0,0,.639.918,1.789,1.789,0,0,0,1.1.306,1.763,1.763,0,0,0,1.041-.289,2.1,2.1,0,0,0,.656-.77c.035-.061.079-.079.14-.044l.359.175c.052.026.061.079.035.14a2.235,2.235,0,0,1-.892,1.023,2.581,2.581,0,0,1-1.338.341,2.532,2.532,0,0,1-1.47-.411A2.185,2.185,0,0,1,124.072,66.447Z" transform="translate(-59.594 -60.49)" fill="#fff"/>
        <path id="Path_130014" data-name="Path 130014" d="M133.477,68.1a2.575,2.575,0,0,1-1.513-.42,2.355,2.355,0,0,1-.875-1.242,2.393,2.393,0,0,1-.1-.324c-.026-.122-.044-.262-.061-.42s-.035-.359-.044-.577-.017-.5-.017-.814.009-.586.017-.814.026-.42.044-.577.044-.306.061-.42a1.75,1.75,0,0,1,.1-.324,2.425,2.425,0,0,1,.875-1.242,2.594,2.594,0,0,1,1.513-.42,2.566,2.566,0,0,1,1.5.42,2.355,2.355,0,0,1,.875,1.242c.026.1.061.21.087.324a3.474,3.474,0,0,1,.07.42c.018.166.035.359.044.577s.017.5.017.814-.009.595-.017.814-.026.42-.044.577a3.474,3.474,0,0,1-.07.42c-.026.114-.061.227-.087.324a2.426,2.426,0,0,1-.875,1.242A2.566,2.566,0,0,1,133.477,68.1Zm1.968-3.805c0-.3-.009-.551-.017-.77s-.026-.4-.035-.551a2.813,2.813,0,0,0-.061-.376c-.026-.1-.052-.192-.07-.262a1.9,1.9,0,0,0-3.578,0c-.017.07-.044.157-.07.262a3.074,3.074,0,0,0-.061.376c-.017.149-.026.332-.035.551s-.017.472-.017.77.009.551.017.77.026.4.035.551a2.811,2.811,0,0,0,.061.376c.026.1.053.192.07.262a1.9,1.9,0,0,0,3.578,0c.017-.07.044-.157.07-.262a3.08,3.08,0,0,0,.061-.376c.017-.149.026-.332.035-.551S135.445,64.6,135.445,64.3Z" transform="translate(-60.469 -60.493)" fill="#fff"/>
        <path id="Path_130015" data-name="Path 130015" d="M138.859,60.725c0-.07.035-.1.114-.1h.42a.164.164,0,0,1,.166.1l2.4,5.292H142l2.344-5.292a.153.153,0,0,1,.157-.1h.429c.07,0,.114.035.114.1V67.9c0,.07-.035.1-.114.1h-.411c-.07,0-.114-.035-.114-.1V62.116h-.035l-2.126,4.68a.274.274,0,0,1-.07.1.232.232,0,0,1-.122.026h-.219a.189.189,0,0,1-.184-.122l-2.126-4.68h-.035V67.9c0,.07-.035.1-.114.1h-.411c-.07,0-.114-.035-.114-.1V60.725Z" transform="translate(-61.469 -60.506)" fill="#fff"/>
        <path id="Path_130016" data-name="Path 130016" d="M148.219,60.725c0-.07.035-.1.114-.1h.42a.164.164,0,0,1,.166.1l2.4,5.292h.044l2.344-5.292a.153.153,0,0,1,.157-.1h.429c.07,0,.114.035.114.1V67.9c0,.07-.035.1-.114.1h-.411c-.07,0-.114-.035-.114-.1V62.116h-.035L151.6,66.8a.274.274,0,0,1-.07.1.232.232,0,0,1-.122.026h-.219a.189.189,0,0,1-.184-.122l-2.126-4.68h-.035V67.9c0,.07-.035.1-.114.1h-.411c-.07,0-.114-.035-.114-.1V60.725Z" transform="translate(-62.641 -60.506)" fill="#fff"/>
        <path id="Path_130017" data-name="Path 130017" d="M157.57,60.725c0-.07.035-.1.114-.1h.411c.07,0,.114.035.114.1V67.9c0,.07-.035.1-.114.1h-.411c-.07,0-.114-.035-.114-.1Z" transform="translate(-63.813 -60.506)" fill="#fff"/>
        <path id="Path_130018" data-name="Path 130018" d="M162.693,68.1a3.987,3.987,0,0,1-.717-.07,4.37,4.37,0,0,1-.682-.192,3.633,3.633,0,0,1-.586-.28,3.307,3.307,0,0,1-.464-.324c-.061-.052-.061-.1-.009-.149l.262-.324c.052-.061.1-.061.149-.009a4.46,4.46,0,0,0,.918.525,3.02,3.02,0,0,0,1.2.236,2.186,2.186,0,0,0,1.4-.411,1.325,1.325,0,0,0,.507-1.093,1.375,1.375,0,0,0-.087-.507,1.131,1.131,0,0,0-.289-.42,1.673,1.673,0,0,0-.542-.315,3.818,3.818,0,0,0-.849-.192l-.341-.044a2.823,2.823,0,0,1-1.61-.639,1.726,1.726,0,0,1-.525-1.312,1.917,1.917,0,0,1,.63-1.522,2.491,2.491,0,0,1,1.7-.551,3.956,3.956,0,0,1,1.172.166,3.01,3.01,0,0,1,.936.455c.061.035.07.087.018.149l-.219.332a.1.1,0,0,1-.149.017,4.136,4.136,0,0,0-.875-.411,3.139,3.139,0,0,0-.91-.14,1.8,1.8,0,0,0-1.233.394,1.353,1.353,0,0,0-.437,1.05,1.21,1.21,0,0,0,.394.927,2.469,2.469,0,0,0,1.338.481l.332.044a2.9,2.9,0,0,1,1.645.656,1.793,1.793,0,0,1,.516,1.33,2.111,2.111,0,0,1-.166.857,1.913,1.913,0,0,1-.5.682,2.277,2.277,0,0,1-.814.446A3.546,3.546,0,0,1,162.693,68.1Z" transform="translate(-64.142 -60.493)" fill="#fff"/>
        <path id="Path_130019" data-name="Path 130019" d="M170.133,68.1a3.987,3.987,0,0,1-.717-.07,4.37,4.37,0,0,1-.682-.192,3.633,3.633,0,0,1-.586-.28,3.309,3.309,0,0,1-.464-.324c-.061-.052-.061-.1-.009-.149l.262-.324c.053-.061.1-.061.149-.009a4.461,4.461,0,0,0,.918.525,3.02,3.02,0,0,0,1.2.236,2.186,2.186,0,0,0,1.4-.411,1.325,1.325,0,0,0,.507-1.093,1.375,1.375,0,0,0-.087-.507,1.131,1.131,0,0,0-.289-.42,1.673,1.673,0,0,0-.542-.315,3.818,3.818,0,0,0-.849-.192L170,64.534a2.823,2.823,0,0,1-1.61-.639,1.726,1.726,0,0,1-.525-1.312,1.917,1.917,0,0,1,.63-1.522,2.491,2.491,0,0,1,1.7-.551,3.956,3.956,0,0,1,1.172.166,3.011,3.011,0,0,1,.936.455c.061.035.07.087.017.149l-.219.332a.1.1,0,0,1-.149.017,4.137,4.137,0,0,0-.875-.411,3.139,3.139,0,0,0-.91-.14,1.8,1.8,0,0,0-1.233.394,1.353,1.353,0,0,0-.437,1.05,1.21,1.21,0,0,0,.394.927,2.469,2.469,0,0,0,1.338.481l.332.044a2.9,2.9,0,0,1,1.645.656,1.793,1.793,0,0,1,.516,1.33,2.111,2.111,0,0,1-.166.857,1.912,1.912,0,0,1-.5.682,2.277,2.277,0,0,1-.814.446A3.546,3.546,0,0,1,170.133,68.1Z" transform="translate(-65.074 -60.493)" fill="#fff"/>
        <path id="Path_130020" data-name="Path 130020" d="M175.4,60.725c0-.07.035-.1.114-.1h.411c.07,0,.114.035.114.1V67.9c0,.07-.035.1-.114.1h-.411c-.07,0-.114-.035-.114-.1Z" transform="translate(-66.046 -60.506)" fill="#fff"/>
        <path id="Path_130021" data-name="Path 130021" d="M180.757,68.1a2.575,2.575,0,0,1-1.513-.42,2.355,2.355,0,0,1-.875-1.242,2.4,2.4,0,0,1-.1-.324c-.026-.122-.044-.262-.061-.42s-.035-.359-.044-.577-.017-.5-.017-.814.009-.586.017-.814.026-.42.044-.577.044-.306.061-.42a1.75,1.75,0,0,1,.1-.324,2.426,2.426,0,0,1,.875-1.242,2.594,2.594,0,0,1,1.513-.42,2.566,2.566,0,0,1,1.5.42,2.355,2.355,0,0,1,.875,1.242c.026.1.061.21.088.324a3.48,3.48,0,0,1,.07.42c.017.166.035.359.044.577s.018.5.018.814-.009.595-.018.814-.026.42-.044.577a3.48,3.48,0,0,1-.07.42c-.026.122-.061.227-.088.324a2.425,2.425,0,0,1-.875,1.242A2.566,2.566,0,0,1,180.757,68.1Zm1.968-3.805c0-.3-.009-.551-.017-.77s-.026-.4-.035-.551a2.81,2.81,0,0,0-.061-.376c-.026-.1-.052-.192-.07-.262a1.9,1.9,0,0,0-3.578,0c-.018.07-.044.157-.07.262a3.078,3.078,0,0,0-.061.376c-.018.149-.026.332-.035.551s-.017.472-.017.77.009.551.017.77.026.4.035.551a2.809,2.809,0,0,0,.061.376c.026.1.052.192.07.262a1.9,1.9,0,0,0,3.578,0c.018-.07.044-.157.07-.262a3.072,3.072,0,0,0,.061-.376c.018-.149.026-.332.035-.551S182.725,64.6,182.725,64.3Z" transform="translate(-66.391 -60.493)" fill="#fff"/>
        <path id="Path_130022" data-name="Path 130022" d="M186.14,60.725c0-.07.035-.1.114-.1h.411a.188.188,0,0,1,.184.1l3.674,6.071h.035V60.725c0-.07.035-.1.114-.1h.411c.07,0,.114.035.114.1V67.9a.093.093,0,0,1-.1.1h-.42a.206.206,0,0,1-.184-.1L186.84,61.81H186.8V67.9c0,.07-.035.1-.114.1h-.411c-.07,0-.114-.035-.114-.1V60.725Z" transform="translate(-67.392 -60.506)" fill="#fff"/>
        <path id="Path_130023" data-name="Path 130023" d="M197.7,60.725c0-.07.035-.1.114-.1h4.234a.093.093,0,0,1,.1.1v.367a.093.093,0,0,1-.1.1H198.4c-.044,0-.061.017-.061.061v2.7c0,.044.018.061.061.061h3.14a.093.093,0,0,1,.1.1V64.5a.093.093,0,0,1-.1.1H198.4c-.044,0-.061.017-.061.061v3.2c0,.07-.035.1-.114.1h-.411c-.07,0-.114-.035-.114-.1V60.725Z" transform="translate(-68.839 -60.506)" fill="#fff"/>
        <path id="Path_130024" data-name="Path 130024" d="M206.747,68.1a2.575,2.575,0,0,1-1.513-.42,2.355,2.355,0,0,1-.875-1.242,2.4,2.4,0,0,1-.1-.324c-.026-.122-.044-.262-.061-.42s-.035-.359-.044-.577-.017-.5-.017-.814.009-.586.017-.814.026-.42.044-.577.044-.306.061-.42a1.75,1.75,0,0,1,.1-.324,2.425,2.425,0,0,1,.875-1.242,2.594,2.594,0,0,1,1.513-.42,2.566,2.566,0,0,1,1.5.42,2.355,2.355,0,0,1,.875,1.242c.026.1.061.21.087.324a3.48,3.48,0,0,1,.07.42c.018.166.035.359.044.577s.018.5.018.814-.009.595-.018.814-.026.42-.044.577a3.48,3.48,0,0,1-.07.42c-.026.122-.061.227-.087.324a2.425,2.425,0,0,1-.875,1.242A2.566,2.566,0,0,1,206.747,68.1Zm1.968-3.805c0-.3-.009-.551-.017-.77s-.026-.4-.035-.551a2.81,2.81,0,0,0-.061-.376c-.026-.1-.052-.192-.07-.262a1.9,1.9,0,0,0-3.578,0c-.018.07-.044.157-.07.262a3.071,3.071,0,0,0-.061.376c-.018.149-.026.332-.035.551s-.018.472-.018.77.009.551.018.77.026.4.035.551a2.805,2.805,0,0,0,.061.376c.026.1.052.192.07.262a1.9,1.9,0,0,0,3.578,0c.018-.07.044-.157.07-.262a3.071,3.071,0,0,0,.061-.376c.017-.149.026-.332.035-.551S208.715,64.6,208.715,64.3Z" transform="translate(-69.646 -60.493)" fill="#fff"/>
        <path id="Path_130025" data-name="Path 130025" d="M216.5,68.013a.139.139,0,0,1-.131-.1l-1.548-3.2h-2c-.044,0-.061.017-.061.061v3.132c0,.07-.035.1-.114.1h-.411c-.07,0-.114-.035-.114-.1V60.735a.093.093,0,0,1,.1-.1h2.484a2.382,2.382,0,0,1,1.653.542,1.907,1.907,0,0,1,.595,1.5,2.021,2.021,0,0,1-.394,1.277,1.966,1.966,0,0,1-1.111.682l1.61,3.272a.114.114,0,0,1,.017.087.078.078,0,0,1-.07.035H216.5Zm-1.8-3.893a1.776,1.776,0,0,0,1.216-.376,1.6,1.6,0,0,0,0-2.161,1.746,1.746,0,0,0-1.216-.376H212.82c-.044,0-.061.018-.061.061V64.05c0,.044.017.061.061.061H214.7Z" transform="translate(-70.645 -60.508)" fill="#fff"/>
        <path id="Path_130026" data-name="Path 130026" d="M50.4,74.595c0-.07.035-.1.114-.1h.42a.164.164,0,0,1,.166.1l2.4,5.292h.044l2.344-5.292a.153.153,0,0,1,.157-.1h.429c.07,0,.114.035.114.1v7.173c0,.07-.035.1-.114.1h-.411c-.07,0-.114-.035-.114-.1V75.986H55.91l-2.126,4.68a.274.274,0,0,1-.07.1.232.232,0,0,1-.122.026h-.219a.189.189,0,0,1-.184-.122l-2.126-4.68h-.035v5.782c0,.07-.035.1-.114.1H50.5c-.07,0-.114-.035-.114-.1V74.595Z" transform="translate(-50.39 -62.243)" fill="#fff"/>
        <path id="Path_130027" data-name="Path 130027" d="M61.769,74.595a.124.124,0,0,1,.131-.1h.394a.137.137,0,0,1,.131.1l2.563,7.173c.017.07,0,.1-.079.1h-.42c-.079,0-.131-.035-.14-.1l-.656-1.811H60.474l-.656,1.811a.147.147,0,0,1-.14.1h-.42q-.1,0-.079-.1Zm1.715,4.75L62.1,75.487h-.035l-1.391,3.858Z" transform="translate(-51.49 -62.243)" fill="#fff"/>
        <path id="Path_130028" data-name="Path 130028" d="M67.527,74.595c0-.07.035-.1.114-.1h.411c.07,0,.114.035.114.1v4.26l3.517-4.269a.272.272,0,0,1,.184-.1h.507c.035,0,.061.009.07.035a.075.075,0,0,1-.026.079l-2.336,2.79L72.6,81.751a.114.114,0,0,1,.017.087.078.078,0,0,1-.07.035h-.49a.21.21,0,0,1-.166-.1L69.662,77.9l-1.513,1.8v2.064c0,.07-.035.1-.114.1h-.411c-.07,0-.114-.035-.114-.1V74.595Z" transform="translate(-52.534 -62.243)" fill="#fff"/>
        <path id="Path_130029" data-name="Path 130029" d="M75.1,74.595c0-.07.035-.1.114-.1h.411a.1.1,0,0,1,.114.1v4.26l3.517-4.269a.272.272,0,0,1,.184-.1h.507c.035,0,.061.009.07.035a.075.075,0,0,1-.026.079l-2.336,2.79,2.519,4.356a.114.114,0,0,1,.018.087.078.078,0,0,1-.07.035h-.49a.21.21,0,0,1-.166-.1L77.232,77.9l-1.513,1.8v2.064c0,.07-.035.1-.114.1h-.411c-.07,0-.114-.035-.114-.1V74.595Z" transform="translate(-53.482 -62.243)" fill="#fff"/>
        <path id="Path_130030" data-name="Path 130030" d="M84.879,74.595a.124.124,0,0,1,.131-.1H85.4a.137.137,0,0,1,.131.1L88.1,81.768c.017.07,0,.1-.079.1H87.6c-.079,0-.131-.035-.14-.1L86.8,79.957H83.584l-.656,1.811a.147.147,0,0,1-.14.1h-.42q-.1,0-.079-.1Zm1.715,4.75-1.382-3.858h-.035l-1.391,3.858Z" transform="translate(-54.384 -62.243)" fill="#fff"/>
        <path id="Path_130031" data-name="Path 130031" d="M90.649,74.595c0-.07.035-.1.114-.1h.411c.07,0,.114.035.114.1V77.77c0,.044.017.061.061.061h3.639c.044,0,.061-.017.061-.061V74.595c0-.07.035-.1.114-.1h.411a.1.1,0,0,1,.114.1v7.173c0,.07-.035.1-.114.1h-.42c-.07,0-.114-.035-.114-.1v-3.28c0-.044-.018-.061-.061-.061H91.34c-.044,0-.061.017-.061.061v3.28c0,.07-.035.1-.114.1h-.411c-.07,0-.114-.035-.114-.1V74.595Z" transform="translate(-55.431 -62.243)" fill="#fff"/>
        <path id="Path_130032" data-name="Path 130032" d="M102.032,80.317c-.026-.1-.052-.2-.079-.306a3.669,3.669,0,0,1-.061-.42c-.017-.166-.026-.367-.035-.595s-.017-.507-.017-.831.009-.6.017-.831.026-.429.035-.595a3.669,3.669,0,0,1,.061-.42c.026-.114.052-.219.079-.306a2.418,2.418,0,0,1,.866-1.242,2.532,2.532,0,0,1,1.47-.411,2.581,2.581,0,0,1,1.338.341,2.235,2.235,0,0,1,.892,1.023c.026.061.017.114-.035.14l-.359.175c-.061.035-.1.017-.14-.044a2.169,2.169,0,0,0-.656-.77,1.763,1.763,0,0,0-1.041-.289,1.848,1.848,0,0,0-1.1.306,1.952,1.952,0,0,0-.639.918c-.017.07-.044.157-.061.262a3.251,3.251,0,0,0-.052.376c-.017.149-.026.332-.035.551s-.009.481-.009.8,0,.577.009.8.017.4.035.551.035.28.052.376.044.192.061.262a1.952,1.952,0,0,0,.639.918,1.789,1.789,0,0,0,1.1.306,1.763,1.763,0,0,0,1.041-.289,2.1,2.1,0,0,0,.656-.77c.035-.061.079-.079.14-.044l.359.175c.052.026.061.079.035.14a2.235,2.235,0,0,1-.892,1.023,2.581,2.581,0,0,1-1.338.341,2.532,2.532,0,0,1-1.47-.411A2.185,2.185,0,0,1,102.032,80.317Z" transform="translate(-56.834 -62.227)" fill="#fff"/>
        <path id="Path_130033" data-name="Path 130033" d="M109.14,74.595c0-.07.035-.1.114-.1h.411a.1.1,0,0,1,.114.1v7.173c0,.07-.035.1-.114.1h-.411c-.07,0-.114-.035-.114-.1Z" transform="translate(-57.748 -62.243)" fill="#fff"/>
        <path id="Path_130034" data-name="Path 130034" d="M113.936,81.874c-.07,0-.114-.035-.114-.1V75.139c0-.044-.017-.061-.061-.061h-2.126a.093.093,0,0,1-.1-.1V74.6a.093.093,0,0,1,.1-.1h5.021a.093.093,0,0,1,.1.1v.367a.093.093,0,0,1-.1.1H114.53c-.044,0-.061.017-.061.061v6.631c0,.07-.035.1-.114.1Z" transform="translate(-58.047 -62.245)" fill="#fff"/>
        <path id="Path_130035" data-name="Path 130035" d="M121.075,81.874c-.07,0-.114-.035-.114-.1V78.848l-2.213-4.234a.067.067,0,0,1,.009-.079.085.085,0,0,1,.079-.035h.42a.189.189,0,0,1,.166.1l1.863,3.534h.035l1.828-3.534a.172.172,0,0,1,.166-.1h.411a.092.092,0,0,1,.087.035.066.066,0,0,1,0,.079L121.6,78.848v2.922c0,.07-.035.1-.114.1Z" transform="translate(-58.95 -62.245)" fill="#fff"/>
        <path id="Path_130036" data-name="Path 130036" d="M131.289,74.595a.124.124,0,0,1,.131-.1h.394a.137.137,0,0,1,.131.1l2.563,7.173c.017.07,0,.1-.079.1h-.42c-.079,0-.131-.035-.14-.1l-.656-1.811h-3.219l-.656,1.811a.147.147,0,0,1-.14.1h-.42q-.105,0-.079-.1ZM133,79.345l-1.382-3.858h-.035L130.2,79.345Z" transform="translate(-60.197 -62.243)" fill="#fff"/>
        <path id="Path_130037" data-name="Path 130037" d="M137.06,74.595c0-.07.035-.1.114-.1h.411a.188.188,0,0,1,.184.1l3.674,6.071h.035V74.595c0-.07.035-.1.114-.1H142c.07,0,.114.035.114.1v7.173a.093.093,0,0,1-.1.1h-.42a.206.206,0,0,1-.184-.1L137.76,75.68h-.044v6.088c0,.07-.035.1-.114.1h-.411c-.07,0-.114-.035-.114-.1V74.595Z" transform="translate(-61.245 -62.243)" fill="#fff"/>
        <path id="Path_130038" data-name="Path 130038" d="M145.12,74.595a.093.093,0,0,1,.1-.1h2.318a2.2,2.2,0,0,1,2.362,1.5c.035.1.07.219.1.332a3.682,3.682,0,0,1,.061.42,5.456,5.456,0,0,1,.035.595c.009.236.009.516.009.849s0,.621-.009.857-.017.42-.035.586-.044.306-.061.42a2.492,2.492,0,0,1-.1.341,2.191,2.191,0,0,1-2.362,1.5h-2.318a.093.093,0,0,1-.1-.1Zm.63,6.631c0,.044.018.061.061.061h1.645a2.383,2.383,0,0,0,1.181-.262,1.489,1.489,0,0,0,.665-.857c.026-.087.052-.184.079-.28a3.246,3.246,0,0,0,.053-.376c.017-.149.026-.332.035-.542s.009-.472.009-.787,0-.577-.009-.787-.017-.394-.035-.542-.035-.271-.053-.376a1.307,1.307,0,0,0-.079-.28,1.436,1.436,0,0,0-.665-.849,2.361,2.361,0,0,0-1.181-.262h-1.645c-.044,0-.061.017-.061.061Z" transform="translate(-62.254 -62.243)" fill="#fff"/>
        <path id="Path_130039" data-name="Path 130039" d="M156.3,74.595c0-.07.035-.1.114-.1h.411c.07,0,.114.035.114.1V77.77c0,.044.018.061.061.061h3.639c.044,0,.061-.017.061-.061V74.595c0-.07.035-.1.114-.1h.411c.07,0,.114.035.114.1v7.173c0,.07-.035.1-.114.1h-.411c-.07,0-.114-.035-.114-.1v-3.28c0-.044-.017-.061-.061-.061H157c-.044,0-.061.017-.061.061v3.28c0,.07-.035.1-.114.1h-.411c-.07,0-.114-.035-.114-.1Z" transform="translate(-63.654 -62.243)" fill="#fff"/>
        <path id="Path_130040" data-name="Path 130040" d="M166.687,81.973a2.575,2.575,0,0,1-1.513-.42,2.355,2.355,0,0,1-.875-1.242,2.394,2.394,0,0,1-.1-.324c-.026-.122-.044-.262-.061-.42s-.035-.359-.044-.577-.018-.5-.018-.814.009-.586.018-.814.026-.42.044-.577.044-.306.061-.42a1.749,1.749,0,0,1,.1-.324,2.426,2.426,0,0,1,.875-1.242,2.532,2.532,0,0,1,1.513-.42,2.566,2.566,0,0,1,1.5.42,2.355,2.355,0,0,1,.875,1.242c.026.1.061.21.087.324a3.477,3.477,0,0,1,.07.42c.018.166.035.359.044.577s.017.5.017.814-.009.595-.017.814-.026.42-.044.577a3.477,3.477,0,0,1-.07.42c-.026.122-.061.227-.087.324a2.426,2.426,0,0,1-.875,1.242A2.566,2.566,0,0,1,166.687,81.973Zm1.968-3.805c0-.3-.009-.551-.017-.77s-.026-.4-.035-.551a2.813,2.813,0,0,0-.061-.376c-.026-.1-.052-.192-.07-.262a1.9,1.9,0,0,0-3.578,0c-.017.07-.044.157-.07.262a3.071,3.071,0,0,0-.061.376c-.018.149-.026.332-.035.551s-.018.472-.018.77.009.551.018.77.026.4.035.551a2.808,2.808,0,0,0,.061.376c.026.1.052.192.07.262a1.9,1.9,0,0,0,3.578,0c.018-.07.044-.157.07-.262a3.073,3.073,0,0,0,.061-.376c.017-.149.026-.332.035-.551S168.655,78.465,168.655,78.168Z" transform="translate(-64.629 -62.23)" fill="#fff"/>
        <path id="Path_130041" data-name="Path 130041" d="M172.07,74.595c0-.07.035-.1.114-.1h.411c.07,0,.114.035.114.1v6.631c0,.044.017.061.061.061h3.648a.093.093,0,0,1,.1.1v.367a.093.093,0,0,1-.1.1h-4.234c-.07,0-.114-.035-.114-.1Z" transform="translate(-65.629 -62.243)" fill="#fff"/>
        <path id="Path_130042" data-name="Path 130042" d="M179.455,81.874c-.07,0-.114-.035-.114-.1V78.848l-2.213-4.234a.067.067,0,0,1,.009-.079.085.085,0,0,1,.079-.035h.42a.189.189,0,0,1,.166.1l1.863,3.534h.035l1.828-3.534a.172.172,0,0,1,.166-.1h.411a.092.092,0,0,1,.087.035.066.066,0,0,1,0,.079l-2.213,4.234v2.922c0,.07-.035.1-.114.1Z" transform="translate(-66.262 -62.245)" fill="#fff"/>
        <path id="Path_130043" data-name="Path 130043" d="M189.943,81.973a3.985,3.985,0,0,1-.717-.07,4.369,4.369,0,0,1-.682-.192,3.634,3.634,0,0,1-.586-.28,3.308,3.308,0,0,1-.464-.324c-.061-.052-.061-.1-.009-.149l.262-.324c.053-.061.1-.061.149-.009a4.462,4.462,0,0,0,.919.525,3.02,3.02,0,0,0,1.2.236,2.186,2.186,0,0,0,1.4-.411,1.325,1.325,0,0,0,.507-1.093,1.374,1.374,0,0,0-.087-.507,1.131,1.131,0,0,0-.289-.42A1.673,1.673,0,0,0,191,78.64a3.818,3.818,0,0,0-.849-.192l-.332-.044a2.823,2.823,0,0,1-1.61-.639,1.726,1.726,0,0,1-.525-1.312,1.917,1.917,0,0,1,.63-1.522,2.491,2.491,0,0,1,1.7-.551,3.956,3.956,0,0,1,1.172.166,3.012,3.012,0,0,1,.936.455c.061.035.07.087.017.149l-.219.332a.1.1,0,0,1-.149.017,4.137,4.137,0,0,0-.875-.411,3.139,3.139,0,0,0-.91-.14,1.8,1.8,0,0,0-1.233.394,1.353,1.353,0,0,0-.437,1.05,1.21,1.21,0,0,0,.394.927,2.469,2.469,0,0,0,1.338.481l.332.044a2.9,2.9,0,0,1,1.645.656,1.793,1.793,0,0,1,.516,1.33,2.111,2.111,0,0,1-.166.857,1.912,1.912,0,0,1-.5.682,2.277,2.277,0,0,1-.814.446A3.6,3.6,0,0,1,189.943,81.973Z" transform="translate(-67.555 -62.23)" fill="#fff"/>
        <path id="Path_130044" data-name="Path 130044" d="M195.21,74.595c0-.07.035-.1.114-.1h.411a.1.1,0,0,1,.114.1v7.173c0,.07-.035.1-.114.1h-.411c-.07,0-.114-.035-.114-.1Z" transform="translate(-68.527 -62.243)" fill="#fff"/>
        <path id="Path_130045" data-name="Path 130045" d="M200.006,81.874c-.07,0-.114-.035-.114-.1V75.139c0-.044-.018-.061-.061-.061H197.7a.093.093,0,0,1-.1-.1V74.6a.093.093,0,0,1,.1-.1h5.021a.093.093,0,0,1,.1.1v.367a.093.093,0,0,1-.1.1H200.6c-.044,0-.061.017-.061.061v6.631c0,.07-.035.1-.114.1Z" transform="translate(-68.827 -62.245)" fill="#fff"/>
        <path id="Path_130046" data-name="Path 130046" d="M205.23,74.595c0-.07.035-.1.114-.1h4.234a.093.093,0,0,1,.1.1v.367a.093.093,0,0,1-.1.1H205.93c-.044,0-.061.017-.061.061v2.633c0,.044.018.061.061.061h3.14a.093.093,0,0,1,.1.1V78.3a.093.093,0,0,1-.1.1h-3.14c-.044,0-.061.017-.061.061V81.2c0,.044.018.061.061.061h3.648a.093.093,0,0,1,.1.1v.367a.093.093,0,0,1-.1.1h-4.234c-.07,0-.114-.035-.114-.1Z" transform="translate(-69.782 -62.243)" fill="#fff"/>
        <path id="Path_130047" data-name="Path 130047" d="M214.443,81.973a3.985,3.985,0,0,1-.717-.07,4.369,4.369,0,0,1-.682-.192,3.634,3.634,0,0,1-.586-.28,3.31,3.31,0,0,1-.464-.324c-.061-.052-.061-.1-.009-.149l.262-.324c.052-.061.1-.061.149-.009a4.462,4.462,0,0,0,.918.525,3.021,3.021,0,0,0,1.2.236,2.186,2.186,0,0,0,1.4-.411,1.325,1.325,0,0,0,.507-1.093,1.375,1.375,0,0,0-.087-.507,1.131,1.131,0,0,0-.289-.42,1.673,1.673,0,0,0-.542-.315,3.818,3.818,0,0,0-.849-.192l-.332-.044a2.823,2.823,0,0,1-1.61-.639,1.726,1.726,0,0,1-.525-1.312,1.917,1.917,0,0,1,.63-1.522,2.491,2.491,0,0,1,1.7-.551,3.956,3.956,0,0,1,1.172.166,3.012,3.012,0,0,1,.936.455c.061.035.07.087.017.149l-.219.332a.1.1,0,0,1-.149.017,4.137,4.137,0,0,0-.875-.411,3.139,3.139,0,0,0-.91-.14,1.8,1.8,0,0,0-1.233.394,1.353,1.353,0,0,0-.437,1.05,1.21,1.21,0,0,0,.394.927,2.469,2.469,0,0,0,1.338.481l.332.044a2.9,2.9,0,0,1,1.645.656,1.793,1.793,0,0,1,.516,1.33,2.111,2.111,0,0,1-.166.857,1.912,1.912,0,0,1-.5.682,2.277,2.277,0,0,1-.814.446A3.564,3.564,0,0,1,214.443,81.973Z" transform="translate(-70.624 -62.23)" fill="#fff"/>
      </g>
      <g id="Group_126008" data-name="Group 126008">
        <g id="Group_126007" data-name="Group 126007">
          <path id="Path_130048" data-name="Path 130048" d="M22.572,18.37a1,1,0,0,0-.988.988.987.987,0,0,0,.988.988.988.988,0,1,0,0-1.977Zm-2.432,0a.991.991,0,0,0-.98.988.969.969,0,0,0,.98.988.988.988,0,1,0,0-1.977Z" transform="translate(-17.515 -17.408)" fill="#fff"/>
          <path id="Path_130049" data-name="Path 130049" d="M41.067,21.04a3.617,3.617,0,0,0-3.945,3.683,2.506,2.506,0,0,0,.84,2.169,3.2,3.2,0,0,0-.84-.1H35.276c-.149-2.913-1.443-4.426-3.359-5.292l3.7-2.239V17.27l-6.01,3.77v1.47c2.414.56,3.63,1.924,3.709,4.278H24.491V21.565a9.9,9.9,0,0,0-3.184-.525A3.647,3.647,0,0,0,17.3,24.845c0,2.161,1.111,3.525,4.05,3.525H44.5V24.53C44.5,22.4,43.438,21.04,41.067,21.04ZM22.549,26.8h-.971c-1.592,0-2.274-.744-2.274-2.126a1.822,1.822,0,0,1,1.8-2.047,3.69,3.69,0,0,1,1.443.271v3.9Zm19.988,0H41.382c-1.575,0-2.274-.7-2.274-2.126a1.822,1.822,0,0,1,1.8-2.047c1.015,0,1.627.639,1.627,2.161V26.8Z" transform="translate(-17.283 -17.27)" fill="#fff"/>
          <path id="Path_130050" data-name="Path 130050" d="M59.44,18.37a1,1,0,0,0-.988.988.982.982,0,0,0,.988.988.988.988,0,1,0,0-1.977Zm-2.432,0a1,1,0,0,0-.988.988.988.988,0,1,0,.988-.988Z" transform="translate(-22.132 -17.408)" fill="#fff"/>
          <path id="Path_130051" data-name="Path 130051" d="M71.051,18.36A1.045,1.045,0,1,0,72.1,19.4,1.061,1.061,0,0,0,71.051,18.36Z" transform="translate(-23.884 -17.407)" fill="#fff"/>
          <path id="Path_130052" data-name="Path 130052" d="M77.91,31.23a.984.984,0,1,0,0,1.968.984.984,0,1,0,0-1.968Zm-2.432,0a.984.984,0,1,0,0,1.968.984.984,0,1,0,0-1.968Z" transform="translate(-24.445 -19.018)" fill="#fff"/>
          <path id="Path_130053" data-name="Path 130053" d="M73.2,21.782v5.555H70.073V21.782h-2v5.555H61.361V22.115a9.9,9.9,0,0,0-3.184-.525A3.647,3.647,0,0,0,54.17,25.4c0,2.161,1.111,3.525,4.05,3.525H75.208V21.782H73.2ZM59.419,27.337h-.971c-1.592,0-2.274-.744-2.274-2.126a1.822,1.822,0,0,1,1.8-2.047,3.69,3.69,0,0,1,1.443.271Z" transform="translate(-21.9 -17.811)" fill="#fff"/>
          <path id="Path_130054" data-name="Path 130054" d="M99.225,17.73v9.124H96.452V24.6c0-2.126-1.058-3.49-3.429-3.49a3.617,3.617,0,0,0-3.945,3.683c0,1.566-.586,2.064-1.5,2.064h-.726c-.184-3.385-1.924-5.1-5.056-5.922L81.31,22.6a4.167,4.167,0,0,1,3.578,4.243H80.4v1.583h7.392c1.277,0,1.881-.472,2.161-1.172.534.7,1.216,1.172,3.394,1.172h7.89V17.73ZM94.5,26.854H93.346c-1.575,0-2.274-.7-2.274-2.126a1.822,1.822,0,0,1,1.8-2.047c1.015,0,1.627.639,1.627,2.161Z" transform="translate(-25.185 -17.328)" fill="#fff"/>
          <path id="Path_130055" data-name="Path 130055" d="M115.542,18.37a.991.991,0,0,0-.98.988.98.98,0,0,0,.98.988.988.988,0,1,0,0-1.977Zm-2.432,0a.991.991,0,0,0-.98.988.969.969,0,0,0,.98.988.988.988,0,1,0,0-1.977Z" transform="translate(-29.159 -17.408)" fill="#fff"/>
          <path id="Path_130056" data-name="Path 130056" d="M125.348,31.23a.984.984,0,1,0,0,1.968.984.984,0,0,0,0-1.968Zm2.432,0a.984.984,0,1,0,0,1.968.984.984,0,0,0,0-1.968Z" transform="translate(-30.691 -19.018)" fill="#fff"/>
          <path id="Path_130057" data-name="Path 130057" d="M150.945,17.674V26.8h-2.782V24.54c0-2.126-1.058-3.49-3.429-3.49a3.622,3.622,0,0,0-3.945,3.683c0,1.566-.595,2.064-1.5,2.064h-1.443V17.674h-2V26.8h-2.476c-.149-2.913-1.443-4.426-3.359-5.292l3.7-2.239V17.28l-6.01,3.77v1.47c2.414.56,3.63,1.924,3.709,4.278H125.8V21.243h-2V26.8h-6.342V21.575a9.9,9.9,0,0,0-3.184-.525,3.647,3.647,0,0,0-4.006,3.805c0,2.161,1.111,3.525,4.059,3.525h25.176c1.268,0,1.881-.472,2.161-1.172.525.7,1.207,1.172,3.394,1.172h7.89V17.674ZM115.517,26.8h-.971c-1.592,0-2.274-.744-2.274-2.126a1.822,1.822,0,0,1,1.8-2.047,3.69,3.69,0,0,1,1.443.271Zm30.687,0h-1.155c-1.583,0-2.274-.7-2.274-2.126a1.822,1.822,0,0,1,1.8-2.047c1.015,0,1.627.639,1.627,2.161V26.8Z" transform="translate(-28.925 -17.271)" fill="#fff"/>
          <path id="Path_130058" data-name="Path 130058" d="M161.83,17.73h2v10.7h-2Z" transform="translate(-35.384 -17.328)" fill="#fff"/>
          <path id="Path_130059" data-name="Path 130059" d="M175.47,18.37a1,1,0,0,0-.988.988.982.982,0,0,0,.988.988,1,1,0,0,0,.988-.988A1.011,1.011,0,0,0,175.47,18.37Zm-2.432,0a1,1,0,0,0-.988.988.988.988,0,1,0,.988-.988Z" transform="translate(-36.664 -17.408)" fill="#fff"/>
          <path id="Path_130060" data-name="Path 130060" d="M187.3,19.434c-.849,0-1.093-.21-1.093-.56,0-.289.227-.516.744-.516a5,5,0,0,1,.822.087l.192-1.058a5.312,5.312,0,0,0-.892-.087c-1.592,0-2.231.814-2.231,1.566a.757.757,0,0,0,.385.665,4.353,4.353,0,0,0-.919-.087v1.093h3.919V19.443H187.3Z" transform="translate(-38.199 -17.274)" fill="#fff"/>
          <path id="Path_130061" data-name="Path 130061" d="M193.56,31.23a.984.984,0,1,0,0,1.968.984.984,0,1,0,0-1.968Zm-2.432,0a.984.984,0,1,0,0,1.968.984.984,0,1,0,0-1.968Z" transform="translate(-38.929 -19.018)" fill="#fff"/>
          <path id="Path_130062" data-name="Path 130062" d="M205.407,17.73v9.124h-2.432V26.81c0-4.435-2.161-6.237-5.948-6.237a12.837,12.837,0,0,0-3.691.595l.192,1.566a10.922,10.922,0,0,1,3.245-.595c3,0,4.286,1.391,4.286,4.54v.184h-1.522v-.35c0-1.715-.761-3.2-2.79-3.2-1.837,0-2.913,1.076-2.913,2.554a1.656,1.656,0,0,0,.367,1.076,3.607,3.607,0,0,0-.682-.07h-2.659V21.317h-2v5.555h-3.132V21.317h-2v5.555h-6.342V21.649a9.922,9.922,0,0,0-3.193-.525,3.651,3.651,0,0,0-4.006,3.805c0,2.161,1.111,3.525,4.05,3.525h33.162V17.73Zm-29.96,9.124h-.971c-1.6,0-2.274-.744-2.274-2.126a1.822,1.822,0,0,1,1.8-2.047,3.69,3.69,0,0,1,1.443.271Zm22.455.061h-1c-.779,0-1.443-.341-1.443-1.2a1.014,1.014,0,0,1,1.137-1.032c.892,0,1.312.621,1.312,1.793v.437Z" transform="translate(-36.429 -17.328)" fill="#fff"/>
          <path id="Path_130063" data-name="Path 130063" d="M215.51,17.73h2v10.7h-2Z" transform="translate(-42.107 -17.328)" fill="#fff"/>
          <path id="Path_130064" data-name="Path 130064" d="M22.552,37.42a.984.984,0,1,0,.988.98A1,1,0,0,0,22.552,37.42Zm-2.432,0a.989.989,0,0,0-.98.98.984.984,0,1,0,.98-.98Z" transform="translate(-17.513 -19.794)" fill="#fff"/>
          <path id="Path_130065" data-name="Path 130065" d="M37.749,40.16l-1.959.271a18.6,18.6,0,0,1,.446,4.068c0,.472-.026,1.207-.087,1.819h-.411c-1.4,0-1.8-.245-1.8-1.443V41.07H32.011V44.5c0,1.47-.446,1.942-1.233,1.942-.892,0-1.05-.595-1.05-1.959V41.673h-2v2.764c0,1.487-.385,1.881-1.365,1.881H24.471V41.1a9.756,9.756,0,0,0-3.184-.534,3.649,3.649,0,0,0-4.006,3.814c0,2.161,1.111,3.517,4.05,3.517h5.012a1.921,1.921,0,0,0,2.021-1.058A2.024,2.024,0,0,0,30.4,48.015a2.386,2.386,0,0,0,2.292-1.172c.446.84,1.251,1.05,2.843,1.05h2.5a29.6,29.6,0,0,0,.21-3.534A19.121,19.121,0,0,0,37.749,40.16ZM22.529,46.327h-.971c-1.592,0-2.274-.744-2.274-2.126a1.818,1.818,0,0,1,1.8-2.047,3.69,3.69,0,0,1,1.443.271Z" transform="translate(-17.28 -20.137)" fill="#fff"/>
          <path id="Path_130066" data-name="Path 130066" d="M55.4,37.42a1,1,0,0,0-.988.98.989.989,0,1,0,.988-.98Zm2.423,0a1,1,0,0,0-.988.98.982.982,0,0,0,.988.988.984.984,0,1,0,0-1.968Z" transform="translate(-21.93 -19.794)" fill="#fff"/>
          <path id="Path_130067" data-name="Path 130067" d="M71.341,36.78V45.9H68.568V43.638c0-2.117-1.058-3.49-3.429-3.49a3.623,3.623,0,0,0-3.945,3.691c0,1.566-.586,2.064-1.5,2.064h-.525c-.534,0-1.172.07-1.172.07a3.058,3.058,0,0,0,.875-2.292,3.178,3.178,0,0,0-3.517-3.534,3.661,3.661,0,0,0-3.866,3.779,2.817,2.817,0,0,0,.717,2.047,7.389,7.389,0,0,0-.945-.07H49.726c-.184-3.385-1.924-5.1-5.056-5.922l-.481,1.671A4.169,4.169,0,0,1,47.766,45.9h-4.5v1.575H59.908c1.277,0,1.881-.464,2.161-1.172.534.7,1.216,1.172,3.394,1.172h7.89V36.78ZM55.167,45.9c-1.111,0-1.671-.717-1.671-2.143s.84-2.029,1.706-2.029c1.137,0,1.662.726,1.662,2.056C56.864,45.2,56.129,45.9,55.167,45.9Zm11.442,0H65.454c-1.575,0-2.274-.7-2.274-2.126a1.818,1.818,0,0,1,1.8-2.047c1.015,0,1.627.639,1.627,2.152Z" transform="translate(-20.535 -19.713)" fill="#fff"/>
          <path id="Path_130068" data-name="Path 130068" d="M80.43,36.78h2v10.7h-2Z" transform="translate(-25.189 -19.713)" fill="#fff"/>
          <path id="Path_130069" data-name="Path 130069" d="M101.976,46.386V47.96H92.791v.061c0,1.942-.665,3.8-3.753,3.8a5.488,5.488,0,0,1-1.268-.149l.149-1.6a4.259,4.259,0,0,0,1.233.184c1.032,0,1.636-.49,1.636-2.126v-7.3h2v5.555h3.7a2.641,2.641,0,0,1-1.172-2.266c0-1.881,1.286-3.49,3.963-3.49a6.5,6.5,0,0,1,1.881.289l-.35,1.592a4.154,4.154,0,0,0-1.575-.324,1.816,1.816,0,0,0-1.916,1.924c0,1.286,1.05,2.266,3.455,2.266h1.2Z" transform="translate(-26.108 -20.196)" fill="#fff"/>
          <path id="Path_130070" data-name="Path 130070" d="M116.268,37.216a.988.988,0,1,0,.988.988A1,1,0,0,0,116.268,37.216Zm1.26-1.986a.988.988,0,1,0,.988.988A.987.987,0,0,0,117.528,35.23Zm1.251,1.986a.988.988,0,0,0,0,1.977.989.989,0,0,0,0-1.977Z" transform="translate(-29.554 -19.519)" fill="#fff"/>
          <path id="Path_130071" data-name="Path 130071" d="M134.7,36.78V45.9h-2.782V43.638c0-2.117-1.058-3.49-3.429-3.49a3.623,3.623,0,0,0-3.945,3.691c0,1.566-.586,2.064-1.5,2.064h-1.373c.044-.674.061-1.347.061-1.959a18.77,18.77,0,0,0-.49-4.208l-1.959.271a18.6,18.6,0,0,1,.446,4.068c0,.472-.026,1.207-.087,1.819h-.411c-1.391,0-1.8-.245-1.8-1.443V40.646h-1.924v3.429c0,1.47-.446,1.942-1.233,1.942-.892,0-1.05-.595-1.05-1.959V41.25h-2v2.764c0,1.487-.376,1.881-1.365,1.881h-1.881V36.78h-2v10.7h3.866a1.921,1.921,0,0,0,2.021-1.058,2.024,2.024,0,0,0,2.038,1.181,2.386,2.386,0,0,0,2.292-1.172c.446.84,1.251,1.05,2.843,1.05h4.251c1.268,0,1.881-.464,2.152-1.172.534.7,1.216,1.172,3.394,1.172h7.89V36.78ZM129.963,45.9h-1.155c-1.575,0-2.274-.7-2.274-2.126a1.818,1.818,0,0,1,1.8-2.047c1.015,0,1.627.639,1.627,2.152V45.9Z" transform="translate(-28.386 -19.713)" fill="#fff"/>
          <path id="Path_130072" data-name="Path 130072" d="M143.87,36.78h2v10.7h-2Z" transform="translate(-33.134 -19.713)" fill="#fff"/>
          <path id="Path_130073" data-name="Path 130073" d="M148.591,51.582l.122-1.636a12.927,12.927,0,0,0,2.371.254c1.575,0,2.624-.595,2.624-2.021v-.227h-1.2c-2.948,0-4.05-1.365-4.05-3.517a3.651,3.651,0,0,1,4.006-3.805,9.756,9.756,0,0,1,3.184.534V48c0,2.091-1.365,3.8-4.75,3.8A16.488,16.488,0,0,1,148.591,51.582Zm5.117-9.106a3.69,3.69,0,0,0-1.443-.271,1.822,1.822,0,0,0-1.8,2.047c0,1.382.682,2.126,2.274,2.126h.971Z" transform="translate(-33.709 -20.196)" fill="#fff"/>
          <path id="Path_130074" data-name="Path 130074" d="M168,37.42a.984.984,0,1,0,.988.98A1,1,0,0,0,168,37.42Zm-2.432,0a.989.989,0,0,0-.98.98.984.984,0,1,0,.98-.98Z" transform="translate(-35.729 -19.794)" fill="#fff"/>
          <path id="Path_130075" data-name="Path 130075" d="M176.377,40.63a3.623,3.623,0,0,0-3.945,3.691,2.487,2.487,0,0,0,.84,2.161,3.388,3.388,0,0,0-.84-.1h-2.5V41.164a9.756,9.756,0,0,0-3.184-.534,3.649,3.649,0,0,0-4.006,3.814c0,2.161,1.111,3.517,4.05,3.517h13.025V44.12C179.807,41.995,178.748,40.63,176.377,40.63Zm-8.4,5.756h-.971c-1.592,0-2.274-.744-2.274-2.126a1.818,1.818,0,0,1,1.8-2.047,3.69,3.69,0,0,1,1.443.271Zm9.867,0h-1.155c-1.575,0-2.274-.7-2.274-2.126a1.818,1.818,0,0,1,1.8-2.047c1.015,0,1.627.639,1.627,2.152v2.021Z" transform="translate(-35.498 -20.196)" fill="#fff"/>
          <path id="Path_130076" data-name="Path 130076" d="M206.908,36.724v9.124h-2.773V43.582c0-2.117-1.058-3.49-3.429-3.49a3.623,3.623,0,0,0-3.945,3.691c0,1.566-.586,2.064-1.5,2.064h-.787c-.149-2.913-1.443-4.435-3.359-5.3l3.709-2.231V36.33L188.8,40.091v1.47c2.414.56,3.63,1.924,3.709,4.286h-5.24V40.293h-2v7.3c0,1.636-.612,2.126-1.645,2.126a4.307,4.307,0,0,1-1.233-.184l-.149,1.6a5.547,5.547,0,0,0,1.268.149c3.079,0,3.753-1.854,3.753-3.8v-.061h8.2c1.277,0,1.881-.464,2.161-1.172.534.7,1.216,1.172,3.394,1.172h7.89v-10.7Zm-4.732,9.124h-1.155c-1.575,0-2.274-.7-2.274-2.126a1.824,1.824,0,0,1,1.811-2.047c1.015,0,1.627.639,1.627,2.152v2.021Z" transform="translate(-37.94 -19.657)" fill="#fff"/>
          <path id="Path_130077" data-name="Path 130077" d="M215.51,36.78h2v10.7h-2Z" transform="translate(-42.107 -19.713)" fill="#fff"/>
        </g>
      </g>
    </g>
    <g id="Group_126013" data-name="Group 126013" transform="translate(190.514 0.009)">
      <g id="Group_126011" data-name="Group 126011">
        <g id="Group_126010" data-name="Group 126010">
          <rect id="Rectangle_13401" data-name="Rectangle 13401" width="3.027" height="3.027" transform="translate(42.33 48.374)" fill="#fff"/>
          <rect id="Rectangle_13402" data-name="Rectangle 13402" width="3.027" height="3.027" transform="translate(42.33 54.419)" fill="#fff"/>
          <path id="Path_130078" data-name="Path 130078" d="M253.212,65.66V77.749h-3.027V71.7H235.07v9.071h39.3V71.7H259.257v6.045H256.23V68.687h24.187V65.66Zm-6.045,12.1H238.1V74.74h9.071Zm15.116-3.027h9.071v3.018h-9.071Z" transform="translate(-235.07 -23.339)" fill="#fff"/>
          <rect id="Rectangle_13403" data-name="Rectangle 13403" width="3.027" height="3.027" transform="translate(48.374 12.089)" fill="#fff"/>
          <rect id="Rectangle_13404" data-name="Rectangle 13404" width="3.027" height="3.027" transform="translate(54.427 12.089)" fill="#fff"/>
          <path id="Path_130079" data-name="Path 130079" d="M289.515,37.145V52.269h6.045v3.018h-9.071V31.1H283.47V58.314h12.089v3.018h-6.045V76.447h9.071v-39.3Zm6.045,36.285h-3.027V64.358h3.027Zm0-24.187h-3.027V40.171h3.027Z" transform="translate(-241.132 -19.011)" fill="#fff"/>
          <rect id="Rectangle_13405" data-name="Rectangle 13405" width="3.027" height="3.027" transform="translate(12.098 6.045)" fill="#fff"/>
          <rect id="Rectangle_13406" data-name="Rectangle 13406" width="3.027" height="3.027" transform="translate(12.098)" fill="#fff"/>
          <path id="Path_130080" data-name="Path 130080" d="M254.945,17.28v9.071H270.06V20.307h3.027v9.062H248.9V32.4h27.2V20.307h3.027v6.045h15.116V17.28Zm12.1,6.045h-9.071V20.307h9.071Zm24.187,0h-9.071V20.307h9.071Z" transform="translate(-236.802 -17.28)" fill="#fff"/>
          <rect id="Rectangle_13407" data-name="Rectangle 13407" width="3.027" height="3.027" transform="translate(6.053 42.321)" fill="#fff"/>
          <rect id="Rectangle_13408" data-name="Rectangle 13408" width="3.027" height="3.027" transform="translate(0.009 42.321)" fill="#fff"/>
          <path id="Path_130081" data-name="Path 130081" d="M238.1,35.414V32.4h6.045V17.28H235.07v39.3h9.071V41.467H238.1V38.449h9.071V62.636h3.018V35.414Zm0-15.107h3.027v9.062H238.1Zm3.027,24.178v9.071H238.1V44.485Z" transform="translate(-235.07 -17.28)" fill="#fff"/>
        </g>
      </g>
      <g id="Group_126012" data-name="Group 126012" transform="translate(18.16 19.507)">
        <path id="Path_130082" data-name="Path 130082" d="M271.029,45.222a6.283,6.283,0,0,1,.542,1.986A10.966,10.966,0,0,0,269,44.8c.079.1.157.219.227.332a5.216,5.216,0,0,1,.192,4.3,12.354,12.354,0,0,0-1.4-3.587c-.149-.245-.3-.481-.464-.717l.227,5.712a.65.65,0,0,1-.63.569.643.643,0,0,1-.63-.569l.227-5.7a7.582,7.582,0,0,0-.464.709,12.354,12.354,0,0,0-1.4,3.587,5.248,5.248,0,0,1,.192-4.3c.07-.114.149-.227.227-.332a11.139,11.139,0,0,0-2.572,2.406,4.773,4.773,0,0,1,1.854-3.543,3.75,3.75,0,0,1,1.251-.5v-.044a7.311,7.311,0,0,0-.752.079,11.394,11.394,0,0,0-3.149.953,4.639,4.639,0,0,1,2.992-2.108,2.785,2.785,0,0,1,.542-.026,10.713,10.713,0,0,0-2.108-.8,4.581,4.581,0,0,1,3.018.2,5.6,5.6,0,0,1,.761-1.837,5.6,5.6,0,0,1,.761,1.837,4.527,4.527,0,0,1,3.018-.2,10.716,10.716,0,0,0-2.108.8,2.785,2.785,0,0,1,.542.026,3.606,3.606,0,0,1,1.636.691,5.271,5.271,0,0,1,1.365,1.417,11.4,11.4,0,0,0-3.149-.953c-.254-.035-.5-.061-.752-.079v.044a3.751,3.751,0,0,1,1.251.5A3.629,3.629,0,0,1,271.029,45.222Z" transform="translate(-256.595 -39.58)" fill="#fff"/>
        <path id="Path_130083" data-name="Path 130083" d="M276.973,50.447a5.476,5.476,0,0,0-3.464.77l-6.141,3.753,2.467,1.5.341-.56c-.009,0-.017-.009-.026-.009a.585.585,0,1,1,.8-.192l-.647,1.058.324.2.735.446a.843.843,0,0,0,.787.061.83.83,0,0,1-.061.385.478.478,0,0,1-.07.131.859.859,0,0,1-1.19.289l-1.058-.647-.341.56c.009,0,.017.009.026.009a.59.59,0,0,1,.192.8.584.584,0,0,1-.8.192.594.594,0,0,1-.192-.8l.647-1.058-2.9-1.776-2.9,1.776.647,1.058a.585.585,0,1,1-.8-.192c.009,0,.018-.009.026-.018l-.341-.56-1.058.647a.87.87,0,0,1-1.2-.289c-.026-.044-.044-.087-.07-.131a.987.987,0,0,1-.061-.385.861.861,0,0,0,.8-.061l.735-.446.332-.2-.647-1.058a.585.585,0,1,1,.8.192c-.009,0-.018.009-.026.009l.341.56,2.467-1.5-6.141-3.753a5.476,5.476,0,0,0-3.464-.77,3.675,3.675,0,0,1,4-.1l6.587,4.024L273,50.342A3.666,3.666,0,0,1,276.973,50.447Z" transform="translate(-255.83 -40.86)" fill="#fff"/>
      </g>
    </g>
  </g>
</svg>
