<svg xmlns="http://www.w3.org/2000/svg" width="22.478" height="22.473" viewBox="0 0 22.478 22.473">
  <path id="insta-hd" d="M-1.886-6.718A5.753,5.753,0,0,0-7.648-.956,5.753,5.753,0,0,0-1.886,4.805,5.753,5.753,0,0,0,3.876-.956,5.753,5.753,0,0,0-1.886-6.718Zm0,9.508A3.753,3.753,0,0,1-5.632-.956,3.749,3.749,0,0,1-1.886-4.7,3.749,3.749,0,0,1,1.86-.956,3.753,3.753,0,0,1-1.886,2.79ZM5.455-6.954A1.344,1.344,0,0,0,4.112-8.3,1.344,1.344,0,0,0,2.768-6.954,1.341,1.341,0,0,0,4.112-5.61,1.341,1.341,0,0,0,5.455-6.954ZM9.271-5.59A6.65,6.65,0,0,0,7.456-10.3a6.694,6.694,0,0,0-4.709-1.815c-1.855-.105-7.417-.105-9.272,0a6.684,6.684,0,0,0-4.709,1.81,6.672,6.672,0,0,0-1.815,4.709c-.105,1.855-.105,7.416,0,9.272a6.651,6.651,0,0,0,1.815,4.709A6.7,6.7,0,0,0-6.524,10.2c1.855.105,7.417.105,9.272,0A6.651,6.651,0,0,0,7.456,8.386,6.694,6.694,0,0,0,9.271,3.677C9.377,1.822,9.377-3.734,9.271-5.59ZM6.875,5.668A3.792,3.792,0,0,1,4.738,7.8c-1.479.587-4.989.451-6.624.451s-5.15.13-6.624-.451a3.792,3.792,0,0,1-2.136-2.136C-11.233,4.189-11.1.678-11.1-.956s-.13-5.15.451-6.624A3.792,3.792,0,0,1-8.51-9.717c1.479-.587,4.989-.451,6.624-.451s5.15-.13,6.624.451A3.792,3.792,0,0,1,6.875-7.58c.587,1.479.451,4.989.451,6.624S7.461,4.194,6.875,5.668Z" transform="translate(13.127 12.193)" fill="#bcaf92"/>
</svg>
