<svg id="RCMC-DDP-White-logo" xmlns="http://www.w3.org/2000/svg" width="245.693" height="64.987" viewBox="0 0 245.693 64.987">
  <g id="Group_129294" data-name="Group 129294">
    <g id="Group_129290" data-name="Group 129290" transform="translate(182.14)">
      <g id="Group_129288" data-name="Group 129288" transform="translate(0 29.045)">
        <path id="Path_130098" data-name="Path 130098" d="M962.036,202.605l-3.856-3.8,4.034-2.488-.177,6.285Zm-3.133-3.718,2.714,2.673.123-4.422Z" transform="translate(-953.517 -187.091)" fill="#fff"/>
        <path id="Path_130099" data-name="Path 130099" d="M982.128,166.232l-.031-.331c-.107-1.162-.246-2.345-.415-3.513l-.092-.657,3.252,3.2-.3.135c-.688.3-1.4.641-2.115,1.016l-.3.154v0Zm.094-3.252c.111.85.211,1.708.3,2.552.519-.265,1.037-.511,1.546-.743l-1.838-1.811h0Z" transform="translate(-972.363 -159.244)" fill="#fff"/>
        <path id="Path_130100" data-name="Path 130100" d="M1000.813,218.287l-3.923-3.86.3-.135a62,62,0,0,0,8.424-4.755l.154-.1,2.722,2.685,5.549-5.632,4.73,8.939-2.41,2.449-.115-.023a44.473,44.473,0,0,0-15.31.415l-.115.019h0Zm-3.141-3.722,3.291,3.24a44.829,44.829,0,0,1,15.236-.419l2.014-2.045-4.287-8.1-5.433,5.517-2.784-2.741a62.519,62.519,0,0,1-8.04,4.552Z" transform="translate(-984.68 -195.278)" fill="#fff"/>
        <path id="Path_130101" data-name="Path 130101" d="M986.051,193.6l-1.281-1.261.008-.1a55.052,55.052,0,0,0,.039-8.085l-.008-.135,3.349-2.068,7.293,7.182-9.4,4.472Zm-.817-1.431.9.893L994.672,189l-6.582-6.482-2.823,1.741a54.373,54.373,0,0,1-.039,7.913l0,0Z" transform="translate(-974.923 -175.522)" fill="#fff"/>
        <path id="Path_130102" data-name="Path 130102" d="M1136.484,160.052l-.158-.131a15.777,15.777,0,0,0-3.3-2.065l-.115-.055-.012-.131c-.226-2.8-.6-5.194-.862-6.708l-.019-.115,1.842-1.868,6.87,6.763-4.244,4.31h0Zm-3.149-2.546a16.254,16.254,0,0,1,3.113,1.938l3.642-3.7-6.229-6.131L1132.5,151c.261,1.5.612,3.809.838,6.51h0Z" transform="translate(-1093.465 -148.98)" fill="#fff"/>
        <path id="Path_130103" data-name="Path 130103" d="M1028.861,274.872l-6.671-6.57,14.048-.922-7.377,7.494h0Zm-5.644-6.19,5.636,5.552,6.237-6.332Z" transform="translate(-1005.048 -244.297)" fill="#fff"/>
        <path id="Path_130104" data-name="Path 130104" d="M937.974,160.415l-3.714-3.655,6.862-6.97,2.026,2-.15,5.394-.111.062a54.493,54.493,0,0,0-4.763,3.061l-.154.111,0,0Zm-3.074-3.661,3.125,3.076c1.534-1.092,3.061-2.072,4.537-2.915l.138-4.948-1.569-1.546L934.9,156.75v0Z" transform="translate(-934.26 -149.632)" fill="#fff"/>
        <path id="Path_130105" data-name="Path 130105" d="M1093.225,199.487l-.139-.285a60.345,60.345,0,0,0-4.89-8.081l-.107-.154L1091,188.01l5.439,2.287-.17,6.1-3.041,3.088Zm-4.556-8.469a61.108,61.108,0,0,1,4.679,7.709l2.472-2.511.158-5.617-4.876-2.049-2.433,2.472v0Z" transform="translate(-1058.1 -180.401)" fill="#fff"/>
        <path id="Path_130106" data-name="Path 130106" d="M1111.066,165.032l-.3-.111a26.5,26.5,0,0,0-4.153-1.187l-.407-.08,5.036-5.114-.181,6.5v0Zm-3.958-1.653a26.446,26.446,0,0,1,3.525,1.012l.131-4.726Z" transform="translate(-1072.687 -156.676)" fill="#fff"/>
        <path id="Path_130107" data-name="Path 130107" d="M1137.225,206.482v-.55c0-1.027-.019-2.092-.076-3.176l-.02-.357,2.907,1.222-2.815,2.856Zm.39-3.392c.035.776.055,1.546.062,2.295l1.581-1.6-1.642-.688v0Z" transform="translate(-1097.579 -191.985)" fill="#fff"/>
      </g>
      <g id="Group_129289" data-name="Group 129289" transform="translate(16.928 5.817)">
        <path id="Path_130108" data-name="Path 130108" d="M1099.66,79.038l.807-.819V65.12l-.807.819Z" transform="translate(-1084.342 -58.242)" fill="#fff"/>
        <path id="Path_130109" data-name="Path 130109" d="M1083.14,95.834l.807-.819V81.92l-.807.815Z" transform="translate(-1071.043 -71.767)" fill="#fff"/>
        <path id="Path_130110" data-name="Path 130110" d="M1107.92,70.658l.809-.819V56.74l-.809.815Z" transform="translate(-1090.992 -51.496)" fill="#fff"/>
        <path id="Path_130111" data-name="Path 130111" d="M1132.71,45.468l.8-.819V31.55l-.8.819Z" transform="translate(-1110.949 -31.217)" fill="#fff"/>
        <path id="Path_130112" data-name="Path 130112" d="M1124.45,53.864l.8-.819V39.95l-.8.819Z" transform="translate(-1104.299 -37.979)" fill="#fff"/>
        <path id="Path_130113" data-name="Path 130113" d="M1074.87,104.218l.8-.819V90.3l-.8.819Z" transform="translate(-1064.385 -78.513)" fill="#fff"/>
        <path id="Path_130114" data-name="Path 130114" d="M1116.19,62.256l.807-.819V48.34l-.807.819Z" transform="translate(-1097.65 -44.733)" fill="#fff"/>
        <path id="Path_130115" data-name="Path 130115" d="M1033.56,137.945l.8.8V132.27l-.8.815Z" transform="translate(-1031.129 -112.301)" fill="#fff"/>
        <path id="Path_130116" data-name="Path 130116" d="M1021.1,142.288h0l-.012.012.012.012h0l.807.8.805.792V140.65l-.805.819Z" transform="translate(-1021.09 -119.047)" fill="#fff"/>
        <path id="Path_130117" data-name="Path 130117" d="M1041.82,132.77l.8.8v-9.7l-.8.819Z" transform="translate(-1037.779 -105.538)" fill="#fff"/>
        <path id="Path_130118" data-name="Path 130118" d="M1058.35,121l.8-.819v-13.1l-.8.819Z" transform="translate(-1051.086 -92.022)" fill="#fff"/>
        <path id="Path_130119" data-name="Path 130119" d="M1066.61,112.6l.8-.819V98.68l-.8.819Z" transform="translate(-1057.735 -85.259)" fill="#fff"/>
        <path id="Path_130120" data-name="Path 130120" d="M1050.08,127.6l.8.793V115.48l-.8.821Z" transform="translate(-1044.428 -98.784)" fill="#fff"/>
        <path id="Path_130121" data-name="Path 130121" d="M1091.4,87.434l.807-.815V73.52l-.807.819Z" transform="translate(-1077.693 -65.004)" fill="#fff"/>
        <path id="Path_130122" data-name="Path 130122" d="M1223.61,124.287l.591.585.212-.214V111.982l-.8-.792Z" transform="translate(-1184.127 -95.33)" fill="#fff"/>
        <path id="Path_130123" data-name="Path 130123" d="M1231.87,130.4l.8-.819v-9.455l-.8-.792Z" transform="translate(-1190.777 -101.883)" fill="#fff"/>
        <path id="Path_130124" data-name="Path 130124" d="M1215.34,116.159l.8.792v-13.1l-.8-.792Z" transform="translate(-1177.47 -88.785)" fill="#fff"/>
        <path id="Path_130125" data-name="Path 130125" d="M1207.08,108.017l.8.793v-13.1l-.8-.792Z" transform="translate(-1170.82 -82.232)" fill="#fff"/>
        <path id="Path_130126" data-name="Path 130126" d="M1248.4,140.22l.8-.819v-3.01l-.8-.792Z" transform="translate(-1204.084 -114.981)" fill="#fff"/>
        <path id="Path_130127" data-name="Path 130127" d="M1240.13,135.3l.8-.819v-6.229l-.8-.8Z" transform="translate(-1197.427 -108.428)" fill="#fff"/>
        <path id="Path_130128" data-name="Path 130128" d="M1140.98,42.935l.8.8v-13.1l-.8-.792Z" transform="translate(-1117.607 -29.84)" fill="#fff"/>
        <path id="Path_130129" data-name="Path 130129" d="M1165.77,67.329l.8.8v-13.1l-.8-.792Z" transform="translate(-1137.564 -49.475)" fill="#fff"/>
        <path id="Path_130130" data-name="Path 130130" d="M1157.5,59.209l.8.792V46.9l-.8-.792Z" transform="translate(-1130.906 -42.938)" fill="#fff"/>
        <path id="Path_130131" data-name="Path 130131" d="M1198.82,99.885l.8.8v-13.1l-.8-.792Z" transform="translate(-1164.17 -75.687)" fill="#fff"/>
        <path id="Path_130132" data-name="Path 130132" d="M1149.24,51.059l.8.792v-13.1l-.8-.792Z" transform="translate(-1124.256 -36.377)" fill="#fff"/>
        <path id="Path_130133" data-name="Path 130133" d="M1190.55,91.749l.805.792v-13.1l-.805-.792Z" transform="translate(-1157.513 -69.134)" fill="#fff"/>
        <path id="Path_130134" data-name="Path 130134" d="M1174.03,75.479l.8.792v-13.1l-.8-.792Z" transform="translate(-1144.213 -56.036)" fill="#fff"/>
        <path id="Path_130135" data-name="Path 130135" d="M1182.29,83.6l.8.8V71.3l-.8-.8Z" transform="translate(-1150.863 -62.573)" fill="#fff"/>
        <path id="Path_130136" data-name="Path 130136" d="M1256.66,143.72v1.4l.7-.708Z" transform="translate(-1210.734 -121.518)" fill="#fff"/>
      </g>
      <path id="Path_130137" data-name="Path 130137" d="M1075.84,231.52l24.307-22.88-22.88,24.311-1.427-1.431Z" transform="translate(-1048.238 -167.964)" fill="#fff"/>
      <path id="Path_130138" data-name="Path 130138" d="M996.66,24.221,1019.035,0l1.443,1.415L996.66,24.221Z" transform="translate(-984.495)" fill="#fff"/>
    </g>
    <g id="Group_129293" data-name="Group 129293" transform="translate(0 14.975)">
      <g id="Group_129291" data-name="Group 129291">
        <path id="Path_130139" data-name="Path 130139" d="M3.421,94.252A3.237,3.237,0,0,1,.807,93.129,3.726,3.726,0,0,1,0,90.655,4.458,4.458,0,0,1,.912,87.9a5.3,5.3,0,0,1,2.6-1.737,5.215,5.215,0,0,1,2.7,1.877,4.3,4.3,0,0,1,.825,2.614,3.538,3.538,0,0,1-1.053,2.72,3.3,3.3,0,0,1-2.386.877H3.421ZM2.07,84.338a1.138,1.138,0,0,1-.842-.316,1.162,1.162,0,0,1-.316-.86,1.016,1.016,0,0,1,1.158-1.14,1.132,1.132,0,0,1,.834.308,1.123,1.123,0,0,1,.306.832,1.024,1.024,0,0,1-1.14,1.176ZM3.4,92.128h.228q1.228,0,1.228-1.456a2.607,2.607,0,0,0-1.351-2.439,2.584,2.584,0,0,0-1.334,2.4Q2.176,92.128,3.4,92.128Zm1.351-7.79a1.115,1.115,0,0,1-.842-.326A1.171,1.171,0,0,1,3.6,83.16a1.1,1.1,0,0,1,.316-.825,1.138,1.138,0,0,1,.842-.316A1.06,1.06,0,0,1,5.9,83.16a1.024,1.024,0,0,1-1.14,1.176Z" transform="translate(0 -81.004)" fill="#fff"/>
        <path id="Path_130140" data-name="Path 130140" d="M41.208,111.495a4.78,4.78,0,0,1-1.123,3.3,3.469,3.469,0,0,1-2.737,1.176,4.535,4.535,0,0,1-2.158-.561v-1.93a3.66,3.66,0,0,0,1.79.509,1.877,1.877,0,0,0,1.5-.624,2.567,2.567,0,0,0,.534-1.729v-5.667l2.193-1.176v6.7Z" transform="translate(-28.329 -99.335)" fill="#fff"/>
        <path id="Path_130141" data-name="Path 130141" d="M88.421,109.236v2.123H86.263a3.332,3.332,0,0,1-1.4,2.527,4.042,4.042,0,0,1-2.456.772,4.327,4.327,0,0,1-2.158-.6v-1.913a3.777,3.777,0,0,0,1.895.544,2.213,2.213,0,0,0,1.308-.4,1.32,1.32,0,0,0,.622-.965q-.14-.018-.439-.035l-.456-.053a3.788,3.788,0,0,1-3.614-3.93,4.285,4.285,0,0,1,1.053-3.053,3.225,3.225,0,0,1,2.456-.983,3.107,3.107,0,0,1,2.439,1,3.281,3.281,0,0,1,.754,2.246v2.72Zm-4.351-2.755q0-1.158-1-1.158-1.333,0-1.334,1.913a1.657,1.657,0,0,0,1.544,1.895,6.054,6.054,0,0,0,.79.088v-2.737Z" transform="translate(-64.049 -98.111)" fill="#fff"/>
        <path id="Path_130142" data-name="Path 130142" d="M134.893,95.9h1.579v2.123h-1.79a3.2,3.2,0,0,1-2.07-.649,3.116,3.116,0,0,1-2.018.649H119.61V95.9h3.141l.211-.6V87.886l2.211-1.176v5.053a5.6,5.6,0,0,1,4.106-1.825,4.136,4.136,0,0,1,3.316,1.439,4.41,4.41,0,0,1,1.053,3v.368Q133.647,95.9,134.893,95.9Zm-4.387,0a.967.967,0,0,0,.764-.228,1.689,1.689,0,0,0,.183-.965v-.333a2.459,2.459,0,0,0-.6-1.72,2,2,0,0,0-1.552-.667,3.594,3.594,0,0,0-2.306.895,6.689,6.689,0,0,0-1.815,2.474V95.9h5.334Z" transform="translate(-96.291 -84.78)" fill="#fff"/>
        <path id="Path_130143" data-name="Path 130143" d="M211.859,109.228h1.562v2.123h-1.79a3.2,3.2,0,0,1-2.07-.649,3.273,3.273,0,0,1-2.492,1,3.239,3.239,0,0,1-2.492-1,3.318,3.318,0,0,1-2.088.649H200.7v-2.123h1.579a1.284,1.284,0,0,0,.947-.29,1.377,1.377,0,0,0,.281-.975v-.509a4.485,4.485,0,0,1,1.07-3.193,3.566,3.566,0,0,1,5.229.3,4.8,4.8,0,0,1,.807,2.9v.509a1.361,1.361,0,0,0,.289.975A1.316,1.316,0,0,0,211.859,109.228Zm-4.79.351q1.334,0,1.334-2.176c0-1.45-.444-2.088-1.334-2.088s-1.351.7-1.351,2.088S206.169,109.579,207.069,109.579Z" transform="translate(-161.572 -98.103)" fill="#fff"/>
        <path id="Path_130144" data-name="Path 130144" d="M260.55,98.027V95.9h1.105a1.567,1.567,0,0,0,1.15-.351,1.681,1.681,0,0,0,.341-1.193V87.886l2.193-1.176v7.668A3.641,3.641,0,0,1,264.3,97.1a3.451,3.451,0,0,1-2.527.93Z" transform="translate(-209.754 -84.78)" fill="#fff"/>
        <path id="Path_130145" data-name="Path 130145" d="M301.32,98.027V87.886l2.211-1.176V98.027Z" transform="translate(-242.576 -84.78)" fill="#fff"/>
        <path id="Path_130146" data-name="Path 130146" d="M345.51,114.383V112.26a5.016,5.016,0,0,1,1.526-.632,4.7,4.7,0,0,1-.561-2.211,3.878,3.878,0,0,1,1.035-2.842,3.291,3.291,0,0,1,2.456-.965,3.342,3.342,0,0,1,2.6,1.211v2.053a3.622,3.622,0,0,0-2.439-1.263,1.312,1.312,0,0,0-1.053.482,1.89,1.89,0,0,0-.4,1.254,2.613,2.613,0,0,0,.754,1.93q.123,0,.386-.018a2.312,2.312,0,0,0,.316-.018,6.774,6.774,0,0,0,3.4-1.07l-.018,2a6.679,6.679,0,0,1-4,1.07,6.54,6.54,0,0,0-4,1.14Z" transform="translate(-278.151 -99.995)" fill="#fff"/>
        <path id="Path_130147" data-name="Path 130147" d="M402.468,98.027a3.09,3.09,0,0,1-2.474-1.018,3.348,3.348,0,0,1-.754-2.263V87.868l2.211-1.158v7.931a1.38,1.38,0,0,0,.281.975,1.284,1.284,0,0,0,.947.29h1.579v2.123h-1.79Z" transform="translate(-321.406 -84.78)" fill="#fff"/>
        <path id="Path_130148" data-name="Path 130148" d="M425.826,110.459h1.579v2.123h-1.79a3.636,3.636,0,0,0-4.246,0h-1.79v-2.123h1.579a1.284,1.284,0,0,0,.947-.29,1.377,1.377,0,0,0,.281-.975v-3.246l2.211-1.158v4.4a1.38,1.38,0,0,0,.281.975A1.284,1.284,0,0,0,425.826,110.459Zm-4.544,3.72a1.057,1.057,0,0,1,1.14,1.14,1.024,1.024,0,0,1-1.14,1.176,1.138,1.138,0,0,1-.842-.316,1.162,1.162,0,0,1-.316-.86A1.016,1.016,0,0,1,421.282,114.179Zm2.7,0a1.06,1.06,0,0,1,1.14,1.14,1.024,1.024,0,0,1-1.141,1.176,1.138,1.138,0,0,1-.842-.316,1.162,1.162,0,0,1-.316-.86,1.016,1.016,0,0,1,1.158-1.14Z" transform="translate(-337.78 -99.335)" fill="#fff"/>
        <path id="Path_130149" data-name="Path 130149" d="M454.32,111.359v-2.123h2.614a6.6,6.6,0,0,0,4.913-1.842q-1.193-2.088-2.9-2.088a4.782,4.782,0,0,0-3.071,1.527v-1.948a4.425,4.425,0,0,1,3.334-1.614,4.331,4.331,0,0,1,2.667,1,8.834,8.834,0,0,1,2.3,2.842v.877a8.494,8.494,0,0,1-3.148,2.492,9.638,9.638,0,0,1-4.114.877h-2.6Z" transform="translate(-365.747 -98.111)" fill="#fff"/>
        <path id="Path_130150" data-name="Path 130150" d="M519.183,79.916l2.211-1.176v7.668a3.641,3.641,0,0,1-1.035,2.72,3.512,3.512,0,0,1-2.544.93H511.2l1.105-2.123h2.316V82.2l2.211-1.176v6.913h.86a1.564,1.564,0,0,0,1.15-.351,1.682,1.682,0,0,0,.341-1.193V79.916ZM517.674,78.9l-.561,1.018h-3.264l.561-1.018h.526a1.476,1.476,0,0,1-.193-.719,1.3,1.3,0,0,1,.413-.965,1.364,1.364,0,0,1,.99-.4,1.534,1.534,0,0,1,.983.368V78.2a1.287,1.287,0,0,0-.842-.368q-.579,0-.579.526a.874.874,0,0,0,.228.544Z" transform="translate(-411.538 -76.81)" fill="#fff"/>
        <path id="Path_130151" data-name="Path 130151" d="M579.6,98.027V87.886l2.211-1.176V98.027Z" transform="translate(-466.603 -84.78)" fill="#fff"/>
        <path id="Path_130152" data-name="Path 130152" d="M637.74,109.236h1.14v2.123h-1.158a6.458,6.458,0,0,1-2.273-.333,4.189,4.189,0,0,1-1.606-1.158q-.491.175-1.772.474a5.435,5.435,0,0,0-2.263.93,2.574,2.574,0,0,0-.754,1.983q0,2.562,2.685,2.562a5.965,5.965,0,0,0,3.229-.947v2.088a6.248,6.248,0,0,1-3.457.983,4.422,4.422,0,0,1-3.369-1.333,4.7,4.7,0,0,1-1.211-3.369,4.575,4.575,0,0,1,1.281-3.439,4.01,4.01,0,0,1,1.218-.825,16.719,16.719,0,0,1,2.343-.684,5.946,5.946,0,0,0,2.158-.86q-1.211-2.123-2.913-2.123a4.684,4.684,0,0,0-3.071,1.527v-1.948a4.166,4.166,0,0,1,6-.614,8.835,8.835,0,0,1,2.3,2.842v.877a3.721,3.721,0,0,1-.7.842,4.5,4.5,0,0,0,2.193.4Zm-7.036,3.93a.983.983,0,1,1,1.965,0,.983.983,0,1,1-1.965,0Z" transform="translate(-504.706 -98.111)" fill="#fff"/>
        <path id="Path_130153" data-name="Path 130153" d="M685.637,106.516a3.29,3.29,0,0,1,5.9-1.965,5.044,5.044,0,0,1-.211,5.825,3.119,3.119,0,0,1-2.369.983,3.928,3.928,0,0,1-2.3-.614,3.36,3.36,0,0,1-2.035.614h-1.79v-2.123h1.579a1.284,1.284,0,0,0,.948-.29,1.377,1.377,0,0,0,.281-.975v-1.456Zm2.211,1.737q0,.983,1.035.983,1.3,0,1.3-2c0-1.334-.45-1.913-1.351-1.913q-.983,0-.982,1.158Z" transform="translate(-549.708 -98.111)" fill="#fff"/>
        <path id="Path_130154" data-name="Path 130154" d="M749.778,98.027A3.09,3.09,0,0,1,747.3,97.01a3.348,3.348,0,0,1-.754-2.263V87.868l2.211-1.158v7.931a1.38,1.38,0,0,0,.281.975,1.284,1.284,0,0,0,.947.29h1.579v2.123h-1.79Z" transform="translate(-601.005 -84.78)" fill="#fff"/>
        <path id="Path_130155" data-name="Path 130155" d="M766.89,95.709V93.586h1.579a1.284,1.284,0,0,0,.947-.29,1.377,1.377,0,0,0,.281-.975V89.074l2.211-1.158v4.509a3.045,3.045,0,0,1-3.228,3.281h-1.79Zm3.965-9.563a1.138,1.138,0,0,1-.842-.316,1.162,1.162,0,0,1-.316-.86,1.115,1.115,0,0,1,.316-.825,1.282,1.282,0,0,1,1.677-.008,1.124,1.124,0,0,1,.308.832,1.024,1.024,0,0,1-1.141,1.176Z" transform="translate(-617.38 -82.461)" fill="#fff"/>
        <path id="Path_130156" data-name="Path 130156" d="M801.424,110.459H803v2.123h-1.79a3.712,3.712,0,0,1-1.105-.158,4.141,4.141,0,0,1-1.351,2.667,3.611,3.611,0,0,1-2.439.877,4.535,4.535,0,0,1-2.158-.561v-1.93a3.66,3.66,0,0,0,1.79.509,1.87,1.87,0,0,0,1.5-.624,2.568,2.568,0,0,0,.536-1.729v-5.685l1.439-.754.755-.4v.018l.018-.018v4.4a1.38,1.38,0,0,0,.281.975A1.284,1.284,0,0,0,801.424,110.459Z" transform="translate(-639.334 -99.335)" fill="#fff"/>
        <path id="Path_130157" data-name="Path 130157" d="M834.12,112.582v-2.123H835.7a1.284,1.284,0,0,0,.947-.29,1.377,1.377,0,0,0,.281-.975v-3.246l2.211-1.158V109.3a3.045,3.045,0,0,1-3.228,3.281h-1.79Zm3.72,3.913a1.138,1.138,0,0,1-.842-.316,1.162,1.162,0,0,1-.316-.86,1.115,1.115,0,0,1,.316-.825,1.143,1.143,0,0,1,1.985.825,1.024,1.024,0,0,1-1.14,1.176Z" transform="translate(-671.503 -99.335)" fill="#fff"/>
      </g>
      <g id="Group_129292" data-name="Group 129292" transform="translate(0.08 23.43)">
        <path id="Path_130158" data-name="Path 130158" d="M.41,208.033V199.42H2.841a3.921,3.921,0,0,1,1.989.5,3.372,3.372,0,0,1,1.334,1.413,4.6,4.6,0,0,1,.476,2.106v.55a4.62,4.62,0,0,1-.47,2.137,3.3,3.3,0,0,1-1.343,1.408,4.158,4.158,0,0,1-2.031.5Zm1.137-7.685v6.757h1.2a2.606,2.606,0,0,0,2.045-.817,3.373,3.373,0,0,0,.731-2.328v-.5a3.43,3.43,0,0,0-.69-2.283,2.456,2.456,0,0,0-1.955-.827H1.547Z" transform="translate(-0.41 -198.946)" fill="#fff"/>
        <path id="Path_130159" data-name="Path 130159" d="M44.9,216.8a2.791,2.791,0,0,1-2.117-.856,3.173,3.173,0,0,1-.817-2.287v-.2a3.815,3.815,0,0,1,.365-1.7,2.831,2.831,0,0,1,1.018-1.172,2.556,2.556,0,0,1,1.417-.423,2.4,2.4,0,0,1,1.94.823,3.569,3.569,0,0,1,.692,2.355v.456H43.066a2.271,2.271,0,0,0,.554,1.528,1.74,1.74,0,0,0,1.345.583,1.91,1.91,0,0,0,.983-.236,2.442,2.442,0,0,0,.7-.628l.669.521a2.687,2.687,0,0,1-2.414,1.236Zm-.136-5.74a1.46,1.46,0,0,0-1.113.482,2.335,2.335,0,0,0-.556,1.351h3.207v-.082a2.079,2.079,0,0,0-.45-1.293,1.374,1.374,0,0,0-1.088-.458Z" transform="translate(-33.868 -207.592)" fill="#fff"/>
        <path id="Path_130160" data-name="Path 130160" d="M78.527,215.677l1.585-4.917h1.119l-2.3,6.4H78.1l-2.32-6.4H76.9l1.626,4.917Z" transform="translate(-61.086 -208.075)" fill="#fff"/>
        <path id="Path_130161" data-name="Path 130161" d="M113.754,216.8a2.791,2.791,0,0,1-2.117-.856,3.173,3.173,0,0,1-.817-2.287v-.2a3.815,3.815,0,0,1,.365-1.7,2.831,2.831,0,0,1,1.018-1.172,2.556,2.556,0,0,1,1.417-.423,2.4,2.4,0,0,1,1.94.823,3.568,3.568,0,0,1,.692,2.355v.456h-4.336a2.271,2.271,0,0,0,.554,1.528,1.74,1.74,0,0,0,1.345.583,1.91,1.91,0,0,0,.983-.236,2.442,2.442,0,0,0,.7-.628l.669.521a2.687,2.687,0,0,1-2.414,1.236Zm-.136-5.74a1.46,1.46,0,0,0-1.113.482,2.335,2.335,0,0,0-.556,1.351h3.207v-.082a2.079,2.079,0,0,0-.45-1.293A1.374,1.374,0,0,0,113.618,211.059Z" transform="translate(-89.295 -207.592)" fill="#fff"/>
        <path id="Path_130162" data-name="Path 130162" d="M149.864,206.077H148.77V196.99h1.094Z" transform="translate(-119.846 -196.99)" fill="#fff"/>
        <path id="Path_130163" data-name="Path 130163" d="M164.98,213.42a3.766,3.766,0,0,1,.37-1.692,2.752,2.752,0,0,1,1.029-1.16,2.8,2.8,0,0,1,1.505-.407,2.7,2.7,0,0,1,2.115.9,3.481,3.481,0,0,1,.807,2.408v.076a3.793,3.793,0,0,1-.359,1.677,2.7,2.7,0,0,1-1.024,1.156,2.828,2.828,0,0,1-1.528.413,2.7,2.7,0,0,1-2.109-.9,3.467,3.467,0,0,1-.807-2.4v-.076Zm1.1.131a2.736,2.736,0,0,0,.493,1.71,1.674,1.674,0,0,0,2.648-.008,2.992,2.992,0,0,0,.491-1.831,2.741,2.741,0,0,0-.5-1.706,1.586,1.586,0,0,0-1.328-.653,1.556,1.556,0,0,0-1.308.645,2.974,2.974,0,0,0-.5,1.846Z" transform="translate(-132.896 -207.592)" fill="#fff"/>
        <path id="Path_130164" data-name="Path 130164" d="M210.428,213.55a3.83,3.83,0,0,1-.669,2.355,2.141,2.141,0,0,1-1.811.893,2.37,2.37,0,0,1-1.835-.739v3.082H205.02v-8.863h1l.053.71a2.257,2.257,0,0,1,1.858-.829,2.152,2.152,0,0,1,1.825.87,3.868,3.868,0,0,1,.671,2.419v.1Zm-1.1-.125a2.825,2.825,0,0,0-.462-1.71,1.489,1.489,0,0,0-1.265-.628,1.611,1.611,0,0,0-1.491.881v3.059a1.614,1.614,0,0,0,1.5.875,1.483,1.483,0,0,0,1.252-.624,3.084,3.084,0,0,0,.464-1.854Z" transform="translate(-165.13 -207.592)" fill="#fff"/>
        <path id="Path_130165" data-name="Path 130165" d="M244.5,216.8a2.791,2.791,0,0,1-2.117-.856,3.173,3.173,0,0,1-.817-2.287v-.2a3.815,3.815,0,0,1,.365-1.7,2.831,2.831,0,0,1,1.018-1.172,2.556,2.556,0,0,1,1.417-.423,2.4,2.4,0,0,1,1.94.823,3.568,3.568,0,0,1,.692,2.355v.456h-4.336a2.271,2.271,0,0,0,.554,1.528,1.74,1.74,0,0,0,1.345.583,1.91,1.91,0,0,0,.983-.236,2.443,2.443,0,0,0,.7-.628l.669.521a2.687,2.687,0,0,1-2.414,1.236Zm-.134-5.74a1.46,1.46,0,0,0-1.113.482,2.335,2.335,0,0,0-.556,1.351h3.207v-.082a2.079,2.079,0,0,0-.45-1.293,1.374,1.374,0,0,0-1.088-.458Z" transform="translate(-194.554 -207.592)" fill="#fff"/>
        <path id="Path_130166" data-name="Path 130166" d="M277.662,202.823a3.742,3.742,0,0,1,.7-2.369,2.374,2.374,0,0,1,3.609-.127V196.99h1.094v9.087h-1.006l-.053-.686a2.231,2.231,0,0,1-1.829.805,2.138,2.138,0,0,1-1.813-.91,3.791,3.791,0,0,1-.7-2.378v-.082Zm1.094.125a2.835,2.835,0,0,0,.45,1.7,1.456,1.456,0,0,0,1.242.616,1.6,1.6,0,0,0,1.521-.934v-2.94a1.607,1.607,0,0,0-1.509-.9,1.456,1.456,0,0,0-1.254.622,3.121,3.121,0,0,0-.45,1.84Z" transform="translate(-223.608 -196.99)" fill="#fff"/>
        <path id="Path_130167" data-name="Path 130167" d="M336.56,208.033V199.42h2.431a3.921,3.921,0,0,1,1.989.5,3.372,3.372,0,0,1,1.334,1.413,4.6,4.6,0,0,1,.476,2.106v.55a4.62,4.62,0,0,1-.47,2.137,3.3,3.3,0,0,1-1.343,1.408,4.158,4.158,0,0,1-2.031.5Zm1.137-7.685v6.757h1.2a2.606,2.606,0,0,0,2.045-.817,3.373,3.373,0,0,0,.731-2.328v-.5a3.43,3.43,0,0,0-.69-2.283,2.456,2.456,0,0,0-1.955-.827H337.7Z" transform="translate(-271.025 -198.946)" fill="#fff"/>
        <path id="Path_130168" data-name="Path 130168" d="M379.58,199.434a.661.661,0,0,1,.162-.45.607.607,0,0,1,.482-.183.621.621,0,0,1,.485.183.646.646,0,0,1,.166.45.625.625,0,0,1-.166.445.632.632,0,0,1-.485.177.617.617,0,0,1-.482-.177A.631.631,0,0,1,379.58,199.434Zm1.183,8.1H379.67v-6.4h1.094Z" transform="translate(-305.658 -198.447)" fill="#fff"/>
        <path id="Path_130169" data-name="Path 130169" d="M400.363,214.973a.808.808,0,0,0-.333-.69,3.228,3.228,0,0,0-1.166-.423,5.555,5.555,0,0,1-1.32-.425,1.866,1.866,0,0,1-.721-.593,1.413,1.413,0,0,1-.234-.817,1.664,1.664,0,0,1,.665-1.332,2.6,2.6,0,0,1,1.7-.544,2.68,2.68,0,0,1,1.766.561,1.782,1.782,0,0,1,.676,1.439h-1.1a.989.989,0,0,0-.382-.776,1.435,1.435,0,0,0-.961-.326,1.53,1.53,0,0,0-.934.259.82.82,0,0,0-.337.68.661.661,0,0,0,.314.6,3.8,3.8,0,0,0,1.133.384,5.93,5.93,0,0,1,1.328.439,1.945,1.945,0,0,1,.754.612,1.506,1.506,0,0,1,.246.873,1.633,1.633,0,0,1-.686,1.374,2.879,2.879,0,0,1-1.78.519,3.224,3.224,0,0,1-1.361-.273,2.212,2.212,0,0,1-.926-.76,1.835,1.835,0,0,1-.333-1.057h1.094a1.134,1.134,0,0,0,.441.873,1.7,1.7,0,0,0,1.086.322,1.762,1.762,0,0,0,1-.251.771.771,0,0,0,.376-.671Z" transform="translate(-319.175 -207.584)" fill="#fff"/>
        <path id="Path_130170" data-name="Path 130170" d="M431.18,202.81v1.55h1.2v.846h-1.2v3.975a.882.882,0,0,0,.16.577.673.673,0,0,0,.544.193,2.667,2.667,0,0,0,.521-.07v.883a3.207,3.207,0,0,1-.84.117,1.358,1.358,0,0,1-1.105-.445,1.911,1.911,0,0,1-.372-1.259v-3.969H428.92v-.846h1.166v-1.55h1.094Z" transform="translate(-345.379 -201.675)" fill="#fff"/>
        <path id="Path_130171" data-name="Path 130171" d="M459.394,211.26a3.314,3.314,0,0,0-.538-.041,1.445,1.445,0,0,0-1.462.916v4.544H456.3v-6.4h1.064l.018.739a1.705,1.705,0,0,1,1.527-.858,1.135,1.135,0,0,1,.485.082v1.018Z" transform="translate(-367.421 -207.592)" fill="#fff"/>
        <path id="Path_130172" data-name="Path 130172" d="M480.47,199.434a.661.661,0,0,1,.162-.45.606.606,0,0,1,.482-.183.621.621,0,0,1,.485.183.646.646,0,0,1,.166.45.625.625,0,0,1-.166.445.632.632,0,0,1-.485.177.617.617,0,0,1-.482-.177A.631.631,0,0,1,480.47,199.434Zm1.183,8.1H480.56v-6.4h1.094Z" transform="translate(-386.879 -198.447)" fill="#fff"/>
        <path id="Path_130173" data-name="Path 130173" d="M500.022,215.9a1.583,1.583,0,0,0,1.023-.355,1.244,1.244,0,0,0,.485-.887h1.035a1.988,1.988,0,0,1-.378,1.047,2.508,2.508,0,0,1-.932.793,2.691,2.691,0,0,1-1.234.3,2.635,2.635,0,0,1-2.08-.873,3.477,3.477,0,0,1-.772-2.388v-.183a3.864,3.864,0,0,1,.343-1.663,2.619,2.619,0,0,1,.985-1.131,2.792,2.792,0,0,1,1.517-.4,2.565,2.565,0,0,1,1.79.645,2.3,2.3,0,0,1,.76,1.675h-1.035a1.518,1.518,0,0,0-.47-1.022,1.461,1.461,0,0,0-1.045-.4,1.535,1.535,0,0,0-1.293.6,2.816,2.816,0,0,0-.458,1.737v.207a2.761,2.761,0,0,0,.456,1.7,1.54,1.54,0,0,0,1.3.6Z" transform="translate(-400.324 -207.584)" fill="#fff"/>
        <path id="Path_130174" data-name="Path 130174" d="M532.55,202.81v1.55h1.2v.846h-1.2v3.975a.882.882,0,0,0,.16.577.673.673,0,0,0,.544.193,2.667,2.667,0,0,0,.521-.07v.883a3.207,3.207,0,0,1-.84.117,1.358,1.358,0,0,1-1.105-.445,1.911,1.911,0,0,1-.372-1.259v-3.969H530.29v-.846h1.166v-1.55h1.094Z" transform="translate(-426.987 -201.675)" fill="#fff"/>
        <path id="Path_130175" data-name="Path 130175" d="M560.3,214.973a.808.808,0,0,0-.333-.69,3.228,3.228,0,0,0-1.166-.423,5.555,5.555,0,0,1-1.32-.425,1.866,1.866,0,0,1-.721-.593,1.414,1.414,0,0,1-.234-.817,1.664,1.664,0,0,1,.665-1.332,2.6,2.6,0,0,1,1.7-.544,2.68,2.68,0,0,1,1.766.561,1.783,1.783,0,0,1,.677,1.439h-1.1a.989.989,0,0,0-.382-.776,1.435,1.435,0,0,0-.961-.326,1.53,1.53,0,0,0-.934.259.82.82,0,0,0-.337.68.661.661,0,0,0,.314.6,3.8,3.8,0,0,0,1.133.384,5.93,5.93,0,0,1,1.328.439,1.945,1.945,0,0,1,.754.612,1.505,1.505,0,0,1,.246.873,1.633,1.633,0,0,1-.686,1.374,2.879,2.879,0,0,1-1.78.519,3.224,3.224,0,0,1-1.361-.273,2.212,2.212,0,0,1-.926-.76,1.835,1.835,0,0,1-.333-1.057H557.4a1.134,1.134,0,0,0,.441.873,1.7,1.7,0,0,0,1.086.322,1.763,1.763,0,0,0,1-.251.771.771,0,0,0,.376-.671Z" transform="translate(-447.934 -207.584)" fill="#fff"/>
        <path id="Path_130176" data-name="Path 130176" d="M613.337,204.66v3.373H612.2V199.42h3.178a3.2,3.2,0,0,1,2.217.721,2.449,2.449,0,0,1,.8,1.911,2.416,2.416,0,0,1-.784,1.932,3.331,3.331,0,0,1-2.246.677h-2.029Zm0-.928h2.041a2.038,2.038,0,0,0,1.4-.429,1.819,1.819,0,0,0,0-2.474,1.914,1.914,0,0,0-1.332-.48h-2.106v3.384Z" transform="translate(-492.928 -198.946)" fill="#fff"/>
        <path id="Path_130177" data-name="Path 130177" d="M656.734,211.26a3.313,3.313,0,0,0-.538-.041,1.445,1.445,0,0,0-1.462.916v4.544H653.64v-6.4H654.7l.018.739a1.705,1.705,0,0,1,1.526-.858,1.134,1.134,0,0,1,.485.082v1.018Z" transform="translate(-526.289 -207.592)" fill="#fff"/>
        <path id="Path_130178" data-name="Path 130178" d="M675.68,213.42a3.766,3.766,0,0,1,.37-1.692,2.753,2.753,0,0,1,1.029-1.16,2.8,2.8,0,0,1,1.505-.407,2.7,2.7,0,0,1,2.115.9,3.481,3.481,0,0,1,.807,2.408v.076a3.793,3.793,0,0,1-.359,1.677,2.7,2.7,0,0,1-1.024,1.156,2.828,2.828,0,0,1-1.528.413,2.7,2.7,0,0,1-2.109-.9,3.467,3.467,0,0,1-.807-2.4v-.076Zm1.1.131a2.736,2.736,0,0,0,.493,1.71,1.674,1.674,0,0,0,2.647-.008,2.992,2.992,0,0,0,.491-1.831,2.74,2.74,0,0,0-.5-1.706,1.586,1.586,0,0,0-1.328-.653,1.557,1.557,0,0,0-1.308.645,2.973,2.973,0,0,0-.5,1.846Z" transform="translate(-544.032 -207.592)" fill="#fff"/>
        <path id="Path_130179" data-name="Path 130179" d="M714.372,213.426a3.754,3.754,0,0,1,.692-2.38,2.387,2.387,0,0,1,3.663-.057l.053-.71h1v6.248a2.6,2.6,0,0,1-.737,1.957,2.716,2.716,0,0,1-1.979.715,3.3,3.3,0,0,1-1.355-.3,2.323,2.323,0,0,1-1.012-.811l.567-.657a2.143,2.143,0,0,0,1.721.87,1.677,1.677,0,0,0,1.246-.45,1.716,1.716,0,0,0,.447-1.265v-.55a2.25,2.25,0,0,1-1.794.756,2.177,2.177,0,0,1-1.819-.9,3.952,3.952,0,0,1-.7-2.466Zm1.1.125a2.863,2.863,0,0,0,.445,1.7,1.443,1.443,0,0,0,1.242.618,1.6,1.6,0,0,0,1.521-.942V212a1.62,1.62,0,0,0-1.509-.916,1.45,1.45,0,0,0-1.248.622A3.121,3.121,0,0,0,715.473,213.55Z" transform="translate(-575.179 -207.592)" fill="#fff"/>
        <path id="Path_130180" data-name="Path 130180" d="M756.794,211.26a3.313,3.313,0,0,0-.538-.041,1.445,1.445,0,0,0-1.462.916v4.544H753.7v-6.4h1.064l.018.739a1.705,1.705,0,0,1,1.526-.858,1.135,1.135,0,0,1,.485.082v1.018Z" transform="translate(-606.841 -207.592)" fill="#fff"/>
        <path id="Path_130181" data-name="Path 130181" d="M779.807,216.671a2.311,2.311,0,0,1-.154-.675,2.445,2.445,0,0,1-1.823.793,2.264,2.264,0,0,1-1.554-.536,1.733,1.733,0,0,1-.606-1.357,1.813,1.813,0,0,1,.76-1.554,3.588,3.588,0,0,1,2.139-.554h1.065v-.5a1.235,1.235,0,0,0-.343-.914,1.38,1.38,0,0,0-1.012-.339,1.6,1.6,0,0,0-.982.3.869.869,0,0,0-.4.715h-1.1a1.5,1.5,0,0,1,.341-.926,2.315,2.315,0,0,1,.922-.708,3.1,3.1,0,0,1,1.281-.261,2.531,2.531,0,0,1,1.733.554,2,2,0,0,1,.651,1.523v2.946a3.6,3.6,0,0,0,.224,1.4v.1h-1.148Zm-1.815-.834a1.928,1.928,0,0,0,.977-.267,1.607,1.607,0,0,0,.669-.692v-1.314h-.858q-2.012,0-2.012,1.178a1,1,0,0,0,.343.805A1.319,1.319,0,0,0,777.992,215.837Z" transform="translate(-624.528 -207.584)" fill="#fff"/>
        <path id="Path_130182" data-name="Path 130182" d="M814.543,210.269l.029.71a2.365,2.365,0,0,1,1.9-.829,1.832,1.832,0,0,1,1.829,1.029,2.409,2.409,0,0,1,.831-.745,2.459,2.459,0,0,1,1.211-.285q2.106,0,2.143,2.23v4.289H821.39v-4.225a1.467,1.467,0,0,0-.314-1.025,1.382,1.382,0,0,0-1.053-.341,1.45,1.45,0,0,0-1.012.365,1.482,1.482,0,0,0-.468.979v4.248h-1.1v-4.2a1.222,1.222,0,0,0-1.367-1.4,1.467,1.467,0,0,0-1.474.916v4.673H813.51v-6.4h1.035Z" transform="translate(-654.991 -207.584)" fill="#fff"/>
      </g>
    </g>
  </g>
</svg>
