<svg xmlns="http://www.w3.org/2000/svg" width="27.386" height="19.256" viewBox="0 0 27.386 19.256">
  <path id="youtube-hd" d="M10.376-8.237a3.441,3.441,0,0,0-2.421-2.437c-2.136-.576-10.7-.576-10.7-.576s-8.564,0-10.7.576a3.441,3.441,0,0,0-2.421,2.437A36.1,36.1,0,0,0-16.438-1.6a36.1,36.1,0,0,0,.572,6.635,3.39,3.39,0,0,0,2.421,2.4c2.136.576,10.7.576,10.7.576s8.564,0,10.7-.576a3.39,3.39,0,0,0,2.421-2.4A36.1,36.1,0,0,0,10.949-1.6,36.1,36.1,0,0,0,10.376-8.237ZM-5.545,2.469V-5.675L1.612-1.6Z" transform="translate(16.438 11.25)" fill="#bcaf92"/>
</svg>
