<svg xmlns="http://www.w3.org/2000/svg" width="49.186" height="54.044" viewBox="0 0 49.186 54.044">
  <g id="icon2" transform="translate(-23.011)">
    <path id="Path_129986" data-name="Path 129986" d="M71.286,52.222H69.768V4.554a.911.911,0,0,0-.911-.911h-17a.911.911,0,0,0-.911.911V8.5H49.122V4.554a.911.911,0,0,0-.911-.911H44.264V.911a.911.911,0,0,0-1.822,0V3.643H38.5a.911.911,0,0,0-.911.911V8.5H34.852a.911.911,0,0,0-.911.911V17h-7.59a.911.911,0,0,0-.911.911V52.222H23.922a.911.911,0,0,0,0,1.822H71.286a.911.911,0,1,0,0-1.822ZM39.406,5.465H47.3V8.5H39.406ZM36.37,52.222h-.607V50.7a.911.911,0,0,0-1.822,0v1.518h-.607V49.186H36.37v3.036Zm6.072-23.379V52.222H38.192V48.275a.911.911,0,0,0-.911-.911H32.423a.911.911,0,0,0-.911.911v3.947H27.262v-33.4H42.443ZM43.353,17h-7.59v-6.68H50.944v17.61H44.264V24.9H47a.911.911,0,1,0,0-1.822H44.264V20.039H47a.911.911,0,1,0,0-1.822H44.264v-.3A.911.911,0,0,0,43.353,17Zm16.092,35.22H44.264V29.755H59.445Zm8.5,0h-6.68V27.629a.911.911,0,1,0-1.822,0v.3H57.624v-.3a.911.911,0,1,0-1.822,0v.3H52.766V5.465H67.947V52.222Z" fill="#887852"/>
    <path id="Path_129987" data-name="Path 129987" d="M109.958,122.439a.911.911,0,0,0,.911-.911v-17a.911.911,0,1,0-1.822,0v17A.911.911,0,0,0,109.958,122.439Zm3.643,0a.911.911,0,0,0,.911-.911v-17a.911.911,0,1,0-1.822,0v17A.911.911,0,0,0,113.6,122.439Zm3.643,0a.911.911,0,0,0,.911-.911v-17a.911.911,0,1,0-1.822,0v17a.911.911,0,0,0,.911.911Zm1.215-38.863a.911.911,0,0,0,.911-.911V81.451a.911.911,0,0,0-1.822,0v1.215A.911.911,0,0,0,118.46,83.576Zm3.643,0a.911.911,0,0,0,.911-.911V81.451a.911.911,0,1,0-1.822,0v1.215A.911.911,0,0,0,122.1,83.576Zm3.643,0a.911.911,0,0,0,.911-.911V81.451a.911.911,0,0,0-1.822,0v1.215a.911.911,0,0,0,.911.911Zm-7.287,6.072a.911.911,0,0,0,.911-.911V87.523a.911.911,0,0,0-1.822,0v1.215a.911.911,0,0,0,.911.911Zm3.643,0a.911.911,0,0,0,.911-.911V87.523a.911.911,0,0,0-1.822,0v1.215a.911.911,0,0,0,.911.911Zm3.643,0a.911.911,0,0,0,.911-.911V87.523a.911.911,0,0,0-1.822,0v1.215a.911.911,0,0,0,.911.911Zm-7.287,6.072a.911.911,0,0,0,.911-.911V93.6a.911.911,0,1,0-1.822,0V94.81A.911.911,0,0,0,118.46,95.721Zm3.643,0a.911.911,0,0,0,.911-.911V93.6a.911.911,0,1,0-1.822,0V94.81A.911.911,0,0,0,122.1,95.721Zm3.643,0a.911.911,0,0,0,.911-.911V93.6a.911.911,0,1,0-1.822,0V94.81A.911.911,0,0,0,125.747,95.721ZM92.956,98.15a.911.911,0,0,0,.911-.911V96.024a.911.911,0,0,0-1.822,0v1.215a.911.911,0,0,0,.911.911Zm3.643,0a.911.911,0,0,0,.911-.911V96.024a.911.911,0,0,0-1.822,0v1.215A.911.911,0,0,0,96.6,98.15Zm3.643,0a.911.911,0,0,0,.911-.911V96.024a.911.911,0,0,0-1.822,0v1.215A.911.911,0,0,0,100.243,98.15Zm-7.287,6.072a.911.911,0,0,0,.911-.911V102.1a.911.911,0,1,0-1.822,0v1.215a.911.911,0,0,0,.911.911Zm3.643,0a.911.911,0,0,0,.911-.911V102.1a.911.911,0,1,0-1.822,0v1.215A.911.911,0,0,0,96.6,104.222Zm3.643,0a.911.911,0,0,0,.911-.911V102.1a.911.911,0,1,0-1.822,0v1.215A.911.911,0,0,0,100.243,104.222Zm-7.287,6.072a.911.911,0,0,0,.911-.911v-1.214a.911.911,0,1,0-1.822,0v1.215A.911.911,0,0,0,92.956,110.294Zm3.643,0a.911.911,0,0,0,.911-.911v-1.214a.911.911,0,1,0-1.822,0v1.215a.911.911,0,0,0,.911.911Zm3.643,0a.911.911,0,0,0,.911-.911v-1.214a.911.911,0,1,0-1.822,0v1.215a.911.911,0,0,0,.911.911Zm-7.287,6.072a.911.911,0,0,0,.911-.911v-1.214a.911.911,0,1,0-1.822,0v1.215a.911.911,0,0,0,.911.911Zm3.643,0a.911.911,0,0,0,.911-.911v-1.214a.911.911,0,1,0-1.822,0v1.215a.911.911,0,0,0,.911.911Zm3.643,0a.911.911,0,0,0,.911-.911v-1.214a.911.911,0,1,0-1.822,0v1.215a.911.911,0,0,0,.911.911Zm25.5-14.574a.911.911,0,0,0,.911-.911V99.668a.911.911,0,0,0-1.822,0v1.215A.911.911,0,0,0,125.747,101.793Zm0,6.072a.911.911,0,0,0,.911-.911V105.74a.911.911,0,0,0-1.822,0v1.215A.911.911,0,0,0,125.747,107.866Zm0,6.072a.911.911,0,0,0,.911-.911v-1.214a.911.911,0,1,0-1.822,0v1.215a.911.911,0,0,0,.911.911Zm0,6.072a.911.911,0,0,0,.911-.911v-1.214a.911.911,0,1,0-1.822,0V119.1A.911.911,0,0,0,125.747,120.01Zm-16.092-33.7a.911.911,0,0,0-.911-.911h-7.287a.911.911,0,0,0,0,1.822h7.287a.911.911,0,0,0,.911-.911Z" transform="translate(-61.747 -72.039)" fill="#887852"/>
  </g>
</svg>
