<svg xmlns="http://www.w3.org/2000/svg" width="53.479" height="53.226" viewBox="0 0 53.479 53.226">
  <g id="icon1" transform="translate(0.124 0.122)">
    <g id="Group_126003" data-name="Group 126003" transform="translate(0 0.002)">
      <path id="Path_129988" data-name="Path 129988" d="M-385.561-33.821V-35.64a1.026,1.026,0,0,0-1.026-1.027h-30.386A1.026,1.026,0,0,0-418-35.64V8.035a1.026,1.026,0,0,0,1.026,1.027h1.819" transform="translate(418.775 37.443)" fill="none" stroke="#887852" stroke-linecap="round" stroke-linejoin="round" stroke-miterlimit="10" stroke-width="1.8"/>
      <path id="Path_129989" data-name="Path 129989" d="M0-107.923v-8.053A1.026,1.026,0,0,1,1.026-117H31.412a1.026,1.026,0,0,1,1.026,1.027v1.722" transform="translate(3.701 120.704)" fill="none" stroke="#887852" stroke-linecap="round" stroke-linejoin="round" stroke-miterlimit="10" stroke-width="1.8"/>
      <path id="Path_129990" data-name="Path 129990" d="M-34.313-389.42l-1.861.006a1.026,1.026,0,0,1-1.026-1.027v-31.742" transform="translate(40.901 438.844)" fill="none" stroke="#887852" stroke-linecap="round" stroke-linejoin="round" stroke-miterlimit="10" stroke-width="1.8"/>
      <path id="Path_129991" data-name="Path 129991" d="M-385.561-67.089v-4.618a1.026,1.026,0,0,0-1.026-1.027h-30.386A1.026,1.026,0,0,0-418-71.707v43.676A1.026,1.026,0,0,0-416.973-27h24.241l7.171-7.137v-5.987" transform="translate(424.621 79.206)" fill="none" stroke="#887852" stroke-linecap="round" stroke-linejoin="round" stroke-miterlimit="10" stroke-width="1.8"/>
      <path id="Path_129992" data-name="Path 129992" d="M0-85.62V-91.8a1.026,1.026,0,0,1,1.026-1.027H7.171Z" transform="translate(31.89 137.822)" fill="none" stroke="#887852" stroke-linecap="round" stroke-linejoin="round" stroke-miterlimit="10" stroke-width="1.8"/>
      <path id="Path_129993" data-name="Path 129993" d="M0,0H13.158" transform="translate(12.574 14.702)" fill="none" stroke="#887852" stroke-linecap="round" stroke-linejoin="round" stroke-miterlimit="10" stroke-width="1.8"/>
      <path id="Path_129994" data-name="Path 129994" d="M0-.1,10.778-.1" transform="translate(12.574 20.821)" fill="none" stroke="#887852" stroke-linecap="round" stroke-linejoin="round" stroke-miterlimit="10" stroke-width="1.8"/>
      <path id="Path_129995" data-name="Path 129995" d="M0-.1,9.019-.1" transform="translate(12.574 26.843)" fill="none" stroke="#887852" stroke-linecap="round" stroke-linejoin="round" stroke-miterlimit="10" stroke-width="1.8"/>
      <path id="Path_129996" data-name="Path 129996" d="M0-.095,9.189-.1" transform="translate(12.574 32.865)" fill="none" stroke="#887852" stroke-linecap="round" stroke-linejoin="round" stroke-miterlimit="10" stroke-width="1.8"/>
      <path id="Path_129997" data-name="Path 129997" d="M0-.095,12.947-.1" transform="translate(12.574 38.887)" fill="none" stroke="#887852" stroke-linecap="round" stroke-linejoin="round" stroke-miterlimit="10" stroke-width="1.8"/>
      <path id="Path_129998" data-name="Path 129998" d="M0-.095,12.776-.1" transform="translate(12.574 44.91)" fill="none" stroke="#887852" stroke-linecap="round" stroke-linejoin="round" stroke-miterlimit="10" stroke-width="1.8"/>
      <path id="Path_129999" data-name="Path 129999" d="M0,0H18.306" transform="translate(29.952 16.792)" fill="none" stroke="#887852" stroke-linecap="round" stroke-linejoin="round" stroke-miterlimit="10" stroke-width="1.8"/>
      <path id="Path_130000" data-name="Path 130000" d="M-173.422-41.262h1.984a3.471,3.471,0,0,0-3.471-3.471h-9.632a3.471,3.471,0,0,0-3.471,3.471h10.492" transform="translate(218.831 80.156)" fill="none" stroke="#887852" stroke-linecap="round" stroke-linejoin="round" stroke-miterlimit="10" stroke-width="1.8"/>
      <path id="Path_130001" data-name="Path 130001" d="M487.788-447.377h-2.961v-18.6h2.961Z" transform="translate(-447.202 482.792)" fill="none" stroke="#887852" stroke-linecap="round" stroke-linejoin="round" stroke-miterlimit="10" stroke-width="1.8"/>
      <path id="Path_130002" data-name="Path 130002" d="M-92.653,0a3.9,3.9,0,0,1-3.9,3.9,3.9,3.9,0,0,1-3.9-3.9Z" transform="translate(126.457 27.572)" fill="none" stroke="#887852" stroke-linecap="round" stroke-linejoin="round" stroke-miterlimit="10" stroke-width="1.8"/>
      <path id="Path_130003" data-name="Path 130003" d="M0-127.375l3.9-10.716,3.9,10.716" transform="translate(26.009 154.947)" fill="none" stroke="#887852" stroke-linecap="round" stroke-linejoin="round" stroke-miterlimit="10" stroke-width="1.8"/>
      <path id="Path_130004" data-name="Path 130004" d="M-92.653,0a3.9,3.9,0,0,1-3.9,3.9,3.9,3.9,0,0,1-3.9-3.9Z" transform="translate(144.854 27.572)" fill="none" stroke="#887852" stroke-linecap="round" stroke-linejoin="round" stroke-miterlimit="10" stroke-width="1.8"/>
      <path id="Path_130005" data-name="Path 130005" d="M0-127.375l3.9-10.716,3.9,10.716" transform="translate(44.406 154.947)" fill="none" stroke="#887852" stroke-linecap="round" stroke-linejoin="round" stroke-miterlimit="10" stroke-width="1.8"/>
      <path id="Path_130006" data-name="Path 130006" d="M0-55.709A4.687,4.687,0,0,1,4.687-60.4a4.687,4.687,0,0,1,4.687,4.687Z" transform="translate(34.418 72.513)" fill="none" stroke="#887852" stroke-linecap="round" stroke-linejoin="round" stroke-miterlimit="10" stroke-width="1.8"/>
    </g>
  </g>
</svg>
