<svg xmlns="http://www.w3.org/2000/svg" width="48.022" height="47.986" viewBox="0 0 48.022 47.986">
  <g id="icon3" transform="translate(0.011 -0.014)">
    <g id="Money_growth" data-name="Money growth">
      <path id="Path_130007" data-name="Path 130007" d="M48,18.5A2.5,2.5,0,0,0,45.5,16h-9A2.5,2.5,0,0,0,34,18.5c0,3.39-.11,3.68.51,4.5A2.51,2.51,0,0,0,34,24.5c0,3.39-.11,3.68.51,4.5-.64.85-.51,1.26-.51,4.5a2.51,2.51,0,0,0,.51,1.5A2.51,2.51,0,0,0,34,36.5c0,3.39-.11,3.68.51,4.5-.64.85-.51,1.26-.51,4.5A2.5,2.5,0,0,0,36.5,48h9A2.5,2.5,0,0,0,48,45.5c0-3.39.11-3.68-.51-4.5A2.51,2.51,0,0,0,48,39.5c0-3.39.11-3.68-.51-4.5.64-.85.51-1.26.51-4.5a2.51,2.51,0,0,0-.51-1.5A2.51,2.51,0,0,0,48,27.5c0-3.39.11-3.68-.51-4.5C48.13,22.15,48,21.74,48,18.5Zm-12,0a.5.5,0,0,1,.5-.5h9c.66,0,.5.52.5,3.5a.5.5,0,0,1-.5.5h-9C35.84,22,36,21.48,36,18.5Zm10,6c0,3,.16,3.5-.5,3.5h-9a.5.5,0,0,1-.5-.5c0-3-.16-3.5.5-3.5h9A.5.5,0,0,1,46,24.5Zm0,6c0,3,.16,3.5-.5,3.5h-9a.5.5,0,0,1-.5-.5c0-3-.16-3.5.5-3.5h9A.5.5,0,0,1,46,30.5Zm0,6c0,3,.16,3.5-.5,3.5h-9a.5.5,0,0,1-.5-.5c0-3-.16-3.5.5-3.5h9A.5.5,0,0,1,46,36.5Zm0,9a.5.5,0,0,1-.5.5h-9c-.66,0-.5-.52-.5-3.5a.5.5,0,0,1,.5-.5h9C46.16,42,46,42.52,46,45.5ZM28.5,22h-9A2.5,2.5,0,0,0,17,24.5c0,3.39-.11,3.68.51,4.5-.64.85-.51,1.26-.51,4.5a2.51,2.51,0,0,0,.51,1.5A2.51,2.51,0,0,0,17,36.5c0,3.39-.11,3.68.51,4.5-.64.85-.51,1.26-.51,4.5A2.5,2.5,0,0,0,19.5,48h9A2.5,2.5,0,0,0,31,45.5c0-3.39.11-3.68-.51-4.5A2.51,2.51,0,0,0,31,39.5c0-3.39.11-3.68-.51-4.5.64-.85.51-1.26.51-4.5a2.51,2.51,0,0,0-.51-1.5c.64-.85.51-1.26.51-4.5A2.5,2.5,0,0,0,28.5,22ZM19,24.5a.5.5,0,0,1,.5-.5h9c.66,0,.5.52.5,3.5a.5.5,0,0,1-.5.5h-9C18.84,28,19,27.48,19,24.5Zm10,6c0,3,.16,3.5-.5,3.5h-9a.5.5,0,0,1-.5-.5c0-3-.16-3.5.5-3.5h9A.5.5,0,0,1,29,30.5Zm0,6c0,3,.16,3.5-.5,3.5h-9a.5.5,0,0,1-.5-.5c0-3-.16-3.5.5-3.5h9A.5.5,0,0,1,29,36.5Zm0,9a.5.5,0,0,1-.5.5h-9c-.66,0-.5-.52-.5-3.5a.5.5,0,0,1,.5-.5h9C29.16,42,29,42.52,29,45.5ZM7,22A7,7,0,0,0,2.15,34,2.49,2.49,0,0,0,0,36.5c0,3.39-.11,3.68.51,4.5-.64.85-.51,1.26-.51,4.5A2.5,2.5,0,0,0,2.5,48h9A2.5,2.5,0,0,0,14,45.5c0-3.39.11-3.68-.51-4.5.64-.85.51-1.26.51-4.5A2.49,2.49,0,0,0,11.85,34,7,7,0,0,0,7,22ZM2,29a5,5,0,1,1,5,5,5,5,0,0,1-5-5ZM12,45.5a.5.5,0,0,1-.5.5h-9c-.66,0-.5-.52-.5-3.5a.5.5,0,0,1,.5-.5h9C12.16,42,12,42.52,12,45.5ZM11.5,36c.66,0,.5.52.5,3.5a.5.5,0,0,1-.5.5h-9c-.66,0-.5-.52-.5-3.5a.5.5,0,0,1,.5-.5ZM7,19c.52,0-.35.6,12.05-9.74l6.37,4.55a1,1,0,0,0,1.21,0L39.31,3.64l-.5,2a1,1,0,1,0,1.94.49L42,1.24a1.15,1.15,0,0,0-.19-.87C41.36-.15,41.35,0,36,.19a1,1,0,1,0,.07,2l2-.07L26,11.75,19.58,7.19a1,1,0,0,0-1.22,0l-12,10A1,1,0,0,0,7,19Z" fill="#887852"/>
    </g>
  </g>
</svg>
